<mxfile host="app.diagrams.net" modified="2024-06-03T20:50:29.605Z" agent="Mozilla/5.0 (Windows NT 10.0; Win64; x64) AppleWebKit/537.36 (KHTML, like Gecko) Chrome/125.0.0.0 Safari/537.36" etag="zCctEHyUD_29GiGSv49B" version="24.4.13" type="device">
  <diagram name="Страница — 1" id="51djpBxhxyCcaavA0QIE">
    <mxGraphModel dx="1434" dy="738" grid="1" gridSize="10" guides="1" tooltips="1" connect="1" arrows="1" fold="1" page="1" pageScale="1" pageWidth="827" pageHeight="1169" math="0" shadow="0">
      <root>
        <mxCell id="0" />
        <mxCell id="1" parent="0" />
        <mxCell id="EHiVDNENzDMnCt2iVOXm-1" value="" style="whiteSpace=wrap;html=1;aspect=fixed;" parent="1" vertex="1">
          <mxGeometry x="85" y="85" width="470" height="470" as="geometry" />
        </mxCell>
        <mxCell id="EHiVDNENzDMnCt2iVOXm-9" value="" style="shape=image;verticalLabelPosition=bottom;labelBackgroundColor=default;verticalAlign=top;aspect=fixed;imageAspect=0;image=data:image/png,iVBORw0KGgoAAAANSUhEUgAAAtoAAALbCAYAAADEsieWAAAAAXNSR0IArs4c6QAAAARnQU1BAACxjwv8YQUAAAAJcEhZcwAADsMAAA7DAcdvqGQAACvASURBVHhe7d0LkGRVecDxAyosD1ejuNEIEUVcDVIaizWg5UoUHwGFIIUkomj5qAIiFigx75SpVJJCUFYF1MhLRTGRPECibCEgSIkPFKIUxEKJEjQETKLALoiYyX6Xe9ae6Z5mZne/nb63f7+qU31vz/Ts3LO98O87Z25v85xVvzFTZmYKAACw5WzzG/s9/8HM1toAALDFbLNhSGwAANjCtm1vAQCALUhoAwBAAqENAAAJhDYAACQQ2gAAkEBoAwBAAqENAAAJhDYAACQQ2gAAkEBoAwBAAqENAAAJhDYAACQQ2gAAkEBoAwBAAqENAAAJhDYAACQQ2gAAkEBoAwBAAqENAAAJhDYAACQQ2gAAkEBoAwBAAqENAAAJhDYAACQQ2gAAkEBoAwBAAqENAAAJhDYAACQQ2gAAkEBoAwBAAqENAAAJhDYAACQQ2gAAkEBoAwBAAqENAAAJhDYAACQQ2gAAkEBoAwBAAqENAAAJhDYAACQQ2gAAkEBoAwBAAqENAAAJhDYAACQQ2gAAkEBoAwBAAqENAAAJhDYAACQQ2gAAkEBoAwBAAqENAAAJhDYAACQQ2gAAkEBoAwBAAqENAAAJhDYAACQQ2gAAkEBoAwBAAqENAAAJhDYAACQQ2gAAkEBoAwBAAqENAAAJhDYAACQQ2gAAkEBoAwBAAqENAAAJhDYAACQQ2gAAkEBoAwBAAqENAAAJhDYAACQQ2gAAkEBoAwBAAqENAAAJhDYAACQQ2gAAkEBoAwBAAqENAAAJhDYAACQQ2gAAkEBoAwBAAqENAAAJhDYAACQQ2gAAkEBoAwBAAqENAAAJhDYAACQQ2gAAkEBoAwBAAqENAAAJhDYAACQQ2gAAkEBoAwBAAqENAAAJhDYAACQQ2gAAkEBoAwBAAqENAAAJhDYAACQQ2gAAkEBoAwBAAqENAAAJhDYAACQQ2gAAkEBoAwBAAqENAAAJhDYAACQQ2gAAkEBoAwBAAqENAAAJhDYAACQQ2gAAkEBoAwBAAqENAAAJhDYAACQQ2gAAkEBoAwBAAqENAAAJhDYAACQQ2gAAkEBoAwBAAqENAAAJhDYAACQQ2gAAkEBoAwBAAqENAAAJhDYAACQQ2gAAkEBoAwBAAqENAAAJhDYAACQQ2gAAkEBoAwBAAqENAAAJhDYAACQQ2gAAkEBoAwBAAqENAAAJhDYAACQQ2gAAkEBoAwBAAqENAAAJhDYAACQQ2gAAkEBoAwBAAqENAAAJhDYAACQQ2gAAkEBoAwBAAqENAAAJhDYAACQQ2gAAkEBoAwBAAqENAAAJhDYAACQQ2gAAkEBoAwBAAqENAAAJhDYAACQQ2gAAkEBoAwBAAqENAAAJhDYAACQQ2gAAkEBoAwBAAqENAAAJhDYAACQQ2gAAkEBoAwBAAqENAAAJhDYAACQQ2gAAkEBoAwBAAqENAAAJhDYAACQQ2gAAkEBoAwBAAqENAAAJhDYAACQQ2gAAkEBoAwBAAqENAAAJhDYAACQQ2gAAkEBoAwBAAqENAAAJhDYAACQQ2gAAkEBoAwBAAqENAAAJhDYAACQQ2gAAkEBoAwBAAqENAAAJhDYAACQQ2gAAkEBoAwBAAqENAAAJhDYAACQQ2gAAkEBoAwBAAqENAAAJhDYAACQQ2gAAkEBoAwBAAqENAAAJhDYAACQQ2gAAkEBoAwBAAqENAAAJhDYAACQQ2gAAkEBoAwBAAqENAAAJhDYAACQQ2gAAkEBoAwBAAqENAAAJhDYAACQQ2gAAkEBoAwBAAqENAAAJhDYAACQQ2gAAkEBoAwBAAqENAAAJhDYAACQQ2gAAkEBoAwBAAqENAAAJhDYAACQQ2gAAkEBoAwBAAqENAAAJhDYAACQQ2gAAkEBoAwBAAqENAAAJhDYAACQQ2gAAkEBoAwBAAqENAAAJhDYAACQQ2gAAkEBoAwBAAqENAAAJhDYAACQQ2gAAkEBoAwBAAqENAAAJhDYAACQQ2gAAkEBoAwBAAqENAAAJhDYAACQQ2gAAkEBoAwBAAqENAAAJhDYAACQQ2gAAkEBoAwBAAqENAAAJhDYAACQQ2gAAkEBoAwBAAqENAAAJhDYAACQQ2gAAkEBoAwBAAqENAAAJhDYAACQQ2gAAkEBoAwBAAqENAAAJhDYAACQQ2gAAkEBoAwBAAqENAAAJhDYAACQQ2gAAkEBoAwBAAqENAAAJhDYAACQQ2gAAkEBoAwBAAqENAAAJhDYAACQQ2gAAkEBoAwBAAqENAAAJhDYAACQQ2gAAkEBoAwBAAqENAAAJhDYAACQQ2gAAkEBoAwBAAqENAAAJhDYAACQQ2gAAkEBoAwBAAqENAAAJhDYAACQQ2gAAkEBoAwBAAqENAAAJhDYAACQQ2gAAkEBoAwBAAqENbLTNNttsvK3boe4P3scvzJ0f8zTatM+P5wVMH6ENbPSIRzyiPOxhD2uCIMayZcvKwx/+8LLttg/+p6Lez2x1Trbffvuy3XbbNdt9E8+BeG7U7cWKxww+j6bF4L+netzTdPww7eJf+8yDm8A0qyEQMTQzM1P+7//+rwnvn/3sZ8198bGf//znzXbc8gsR2A888EAzZzFPEVex31U1BOM2ngsx6n4cY43HxRxj/Zrxwq3Lc7NY9bhjzuLfTfyb+ulPf9rcB/Sf0AYaEdCPfOQjy3333dfEQQ2DGtZxG9Ed2zW8eFB9QbLTTjv1IiJrHIYa2vXFVYRyhGJ9fizUjjvu2MxNPI9C11+MLFTMV8xfzOn999/fHH8c92LmDuguoQ00Igje9KY3lX322afZjzOXoUZ3uOqqq8qnPvUpZ+QGxPzEcpF6pvclL3lJecUrXrFxzrqohmGN7AjDj33sY+X6669vtmMs5sx0fK3f/d3fLatXr25elMRcxdet0d1ncZwh5utrX/taOffcc8u999678X6g34Q20IgAipj67d/+7Wa7qkG0fv36ct5555UTTjihOevNLzzqUY8q69atK4ceemj54Ac/2PxkoMsROfi9RxTH2dfbb7+9HHnkkeXLX/5ys1/P4i9EfL1TTjmlHHvssU10x9esL076Lo435ituL7744vLa1762mbeFzh3Qbf0/nQAsSD1zWc/ERhzFiDNxEQmxDjn2F3oWs49iHiIwYx4iFGN/hx12aKIpzmK/+93vLjvvvHMzhzFvXR31777+/cff/YoVK8ppp53W/MQj5iCeB3H88fE6N4O3c9WvG4+NX7KtX7vvox5zbMecxb5lIzA9hDawKNP+I+/6QiPiOmI79g866KBy9tlnl912260Jzflis+v23nvvZulQxHaEY6jPhzjmiEhLIgB+QWgDLFBEZA3M+OW+2H/5y19eTjrppOZMdo3vPoqz0OGXf/mXy5lnnrkxtmMO4pjjtq8vMAA2ldAGWKD64/+IyviF0AMPPLB8+tOfbs5kh4jRWHfcx+CMdflxxjqWkey5557l7//+78uqVauaj8V8DN4C8CChDbBAsbY2zlzHmtv4pdE1a9Y08VnX3kZ8R2z2cQ1uvIiIy9PVFxGxZvuMM84o+++//8b7unylFYAMQhtgASIm44x2nNk95JBDyvve977yhCc8obm//qJojNiP4Izgrme+I1DjcXE7aSO+v7kj7o8XC7EUJs7Q17P0cZxxGy80YrnIypUry1lnnVWe/vSnN/v16hoLFZ9fX5jEn1H/7D6NmMO4jUv6xdzEsXpBAtMj/ovoZ31AE5HnnHNOOeKIIzZGY4g4iBiKs7bx8bhEW8TCtIl5iDl5ylOeUj73uc+VJz/5yU0cxn0xP/HxGHFf7MdtRNb3vve9Jkbj6iSLDdGtIb7XuWL9eVyGbtddd23+3iOsY8wVHws33XRTOeCAA8qdd97ZRGS9v4o5irP/Rx99dPM8q3MQ8xEfi8//yle+Ui666KJmf9LmaHPEMcZPAyK0v/vd75ZLLrmkeUERzw9gOsR/ZQ3DmPKxIYBmPv7xj8/cf//9MxvCZ2ZDCDQjxG3c/+EPf3hmQ0iNfHzfx4b4a+Zo1apVM+vWrWvmY0NENWNDUDe369evb+Yrtu+5556Z73znOzN77bXXzOMe97iZDbHVPD7mb5LGhrAdGvG97rfffjO33HJLc2wbwrA5rlHiOO+7776ZlStXzmy33XYj5y6+5vvf//5mzupzKtT9eL595CMfmVm+fPnI77HLI4495iX+7mN7++23HzlHhmH0c1g6ArAIG+KpOQscZ2bjNs5YVrG0Is7Oxrj55pvLq1/96rIhVsuPfvSj5kzthqhsHjNJI76nwVHvu/baa8sb3/jG8pOf/KQ9umHxeXH2u85B7MdxLlR8/obYbv7MuI3lNYPfWx9GfU7EvMSZ+tgGpofQBliECOwIphqlsaQibiOkYklAhFS8VXm8i+INN9zQLB+J2KoRGY+bpDFXfI8hPhbLOeIt5b///e/PekFRxefE/THi+OtcLFSs664vWCK067z2adS/93gexBzFdrxYA6aD0AZYoIikiMoIpYimGCFiMURo/vjHPy7HH398c0Y74irCOwI8HhujC+L7ju81IvHGG28sf/AHf9Acx9xjqPMQwVyPczHrq+NzB+OzzmcfxTHGvEZ8j3rRAvST0AZYpBqbo6Iy4vS2225rgqp+XtzW7S6I7zW+/xC3P/jBD8bGYcxDjE05xsE57NIcLVTX/u6BLUtoA2whNar6FlZCEWDTCG2AzTR4VnbUWe4u6+MLB4CtRWgDbKbBZSKh67Ed33/fXjAALAWhDbAANaTrGd56tY0YccWM+GXA+GW32J8b3l3Wl+MAWApCG2CBIjr/+7//u6xdu7Z5h79LL720/Mu//Eu56qqryhe/+MVy8cUXl6uvvnrjtbb7wJltgE0ntAEWId5G+3Wve1057LDDyqGHHtq8Kc0rX/nKcvDBB5ejjjqqvPWtby133HGHM8EACG2AhaqXvKuXuqvXgI7747J+cbtu3brmetIAILQBFiiWUcSykPrGI3VtdmzHqGex43MAQGgDLFCEdI3sCOy6fjn2423W40x3vEtkPePddfX44tgeaq12zM3mrOfenMdOknocfTkeYPMIbYBFirAO9Wx2iACPuIr7dtxxx+a+roq3VI9jidtly5aVP/uzP9t439yAjMCOY45lNHUpzWLFC5N4+/rQ5UCtbyMfx1DnIwYwveK/aH5jB2jOxJ5zzjnliCOOmBUIEQ01puLjxx57bG/O2G4pNQ4jtGJuYu66PEdxHBG+T3jCE8qFF15Y9thjj7LDDjsMRXA8J+JzYwnNvvvuW/71X/+12Y/7B8V8rFmzphx99NHN86x+nTpX8fj4c9797nc3L1i6LI6tvij5n//5n/Lv//7v/r3AFBPaQENob7qIy3omN7ZjzubGZpdEKO68887lYx/7WFm9enUT2fX5MKguoYnbZz7zmeXWW29t9uee1Z4vtONxsV2vPx6/UFo/1kVx3PXfS4zzzjuvnHjiiZ1/8QBsOqENNIT2pqvzFXO1fPnysvvuu3c6tB/1qEeVP//zP28iO54XYVQARyjHFVbWr19fVq1aVb7//e838zD32OO+UaEdAVrnLcTzLPa7Ks7Mx9hpp52afyMR2sccc4yr0MAUE9pAQ2hvupijOJO9YsWKcvLJJ5f999+/+QXCLosz2vGciEgctWwkxHPi7rvvLn/4h39YPvGJTzTPi/j8eL4Mmi+04/MituO+rkd2qMdS/32cf/755c1vfrMz2jDFuv1fNYCtKAIxYrCGYt2P9cwR2aeccko55JBDmjPCj370ozs7HvOYxzQvFOLFQ/xiZxxnRHUs7YiIjDPZsf2jH/2o/MVf/EUTlBHYm3LmNpaphLrkpstqZMdzIo6nyz/VALYMoQ2wCHVdcYiYChGmp59+ehPZcZWOGPE5XRgRhXNH3D9XPda77rqruY23on/Xu97V/JQj3qQnHrcpZ6XjMTGncdY3ll2Eud9jl0bEdph7Vh+YTkIbYIEiniKkIgzr5eh22WWX5kz2QQcd1AR2nNEcFWBdGqNEBMfH4mx9RPZ73/ve5kx2zEk9e1uXgCxGfXwdsR/z28VR5y5eNMRxxHNkvvkEpoPQBliEemY3wurxj398OeOMM5oz2TUS47ZLsb1QscQjji2Wh7zzne9szuDHL0HGGu36deK4FxPa9XHxmBqnXR7xYiPmIOYqnh/33HNPcz8wveK/cv4rADRnI/0y5Hg1TiM4H/vYxzbXfX7Vq161cb4isOovxC12CcVSmRuCNX7nisD+8Y9/XE466aTy4Q9/uAnJ+th4btTtOO65a5Pjvvl+GTK+Trj99tvLnXfeOfT9dEkcV/zbiOON58Fll13WLK+pS2KA6SO0gYbQHi/mIUbEdPzC4Jlnnlle+tKXNh+r8VjDMeYubutZ7jjzG79U2JV5i++/HksN6vje3/72t5dzzz23Od577723+dz42EOJrzdfaMd2RPxZZ51V/vRP/3Qo0rumHlPcxrFEZNcXE8D0EdpAQ2iPF/MQcxKXuvvQhz5UDj/88Oa+WIdbYzP2Q+zXERF50003Neu3Q/2cSVaPJ8R2hGIskfnUpz618coj9Tkw+LnzWUhox1nyWJLSt7O/C5kfoL+ENtAQ2uPFPMQZ6uc+97nliiuuaK6+EctHIkJjruLjsR23MT91PfNf/uVfNr84WD+vS+qZ2HobZ+VjTXbcxhntev9DWUxoxzZAX3Trv/oASyjCMOIyQjou6RcvPiIi5561jMiOK3P8yZ/8SfnABz7QfF48Js7WdmFE7MaIdcYx4nuPQI5f7ovra8dSmAjkGswAjCa0ARYowjJCM2I7tiOoI0xDPTsbtxHZZ599dvngBz+48czvQs/+TqoI73q8sQxm7osLAIYJbYAFiriMs7l1CUjEc/xyZNwfIRpnfuPjsVQk3jEx7quRHY+p25M+4njmjngREWe343Yxvwg5TnytQXP3AbpOaAMswuAa4zjDG9txGyEdZ3vjMnUXXHBBsx0hGuEa6m1X1e8/XkyELXk8MYciG+gjoQ2wmSKo4+ojsawkgjvWZAOA0AbYTPVsbF1KEUssAEBoA2ymGth1CUTs1/sAmF5CG2AzRVTXwA71lyV5aHXuBucPoC/83wCYejX0BsdizP38+ouCg+EoIofFnMRcxQuTGH2co7nPqzqA6SC0gUWrYdSXkWVuUI36s7s8MoJx1J/T5QFMN/8VABYtzkL2aWwNEaWj/uwuj4wz0KP+nC4PYLoJbWBRIhjjutF9GnFMdWyu+nXqGc3Brz3qz+7yGDy2zWWOgD4S2sCC1FiYG499GDWK67FtrsGvOV909WEMzlmMzVG/Xv1afRl1jgbnCpge8S/eb+gAzTsennPOOeWII47YGAVh8BfWbrnllvJv//ZvGz/WF3Hd63izmXvuuad84QtfKGeddVbzzo6DP/qv0fTc5z63XH755c3n1/tjjuoyirvuuqt8+ctfnpplA/XNeY477rjyn//5n807R8499pi3NWvWlKOPPnrWO2uG+vjvfe975cYbb2w+3icxH/EiK962/lvf+lZ5z3ve07xNv2UlMB2ENtCYL7RDjYJ6G6HUpzNzcSwRfHHMZ5xxRjnxxBOb/cE1yPE540I73Hfffc07RPZpbsaJFyhxvPECZZ999mleiIWFhnbMW31zn/g6MefxsT7NX8xFHNd2221X/umf/qm8/vWvb6J78LkF9JelI8BYEQQRSoNLH2K/bvdhhAjAepz1+BZr2bJlzePjLGZ8jblj7p/b9RHxGLf17efj2Bcjnlvx2MG56ds8xfHEPMVtfQES28B08K8dGCtiIQIhzjzWCIrbPo16NjsCOYI7wmhTxHKTOFtZz9rOHXP/3K6POKZ4btSz0RHac89mjzM4NzH3Ed59m6c4pvriK44tnlvOZsP0ENrAQ4pQGDxbGaHQpxHHFrcRRhGMP/3pT5v9h1I/p97GWd0ddthh3sfG/X0aEY51u75YWYyI8hjxuBrsYfDP6Pqoz6n6giJesMb9wHQQ2kAjIqAGQYRAhE9dPxtqKNSYqvtdH6GecYxji9vBFxWD4vNjTuK2nqGMuRr8WnEbX2dUTNXP68sIMVfxXImz+LFGfT4xH/H8inkLgz8hCfH4wbnswwiDxzQY3MB0ENpAI/7nH1EQ0VRDc/AM41xxXx9GVeOnRvd8MRRxOHgWNuIpjPqag/f1cVT1hUU8X8bNW3ysztt8L2bm/hldHqEec4j7Yo7i+IHpILSBRkRAjcy4/FjcxhnKiIK+jzjOON4azaGG0qCIpkc+8pHN569bt65Zkx1Gfc1pGLHEJm7j7HTMX2yPEnMZa9dj/uplE+Mx9ev0ecSx33333c1tBHfM2XwvRoD+iX/tw/83AaZORMB+++1XnvjEJzbRFCEZ4bl8+fL2M/orwjl+SS3WV998883luuuua8IoQqmKOIrlDb/0S79UVq9e3YRivDCJOYr7p1GN67jaymc/+9lmTuqLj0Exd3vvvXf51V/91Y0/JYnn26gXM31TX7zF+v3bb7+9XHPNNbNe0AH9JrSBRoRPBFHcRjxFPEZ4xjWS+66GcoRfxGLsR0TGqGJu6pnI+HjMUURjfP60iudKVZ8/ceZ6rrg/Yry+OBmc176L443jr2e3YztCe/BFHNBfQhuYJUJgGs40zhXHHWoMjZuD+vFpnatBg3MRHmo+pnXOFjo/QL8IbQAASOCXIQEAIIHQBgCABEIbAAASCG0AAEggtAEAIIGrjgALMnhZtnqpsvm4hNnmq/O9uZeFm+/vamv/HQ0+f/pk8Lg29+8K6B+hDTwkAbH11YCrcx8WM/+Djxs092uGrfH32sfn0Ny/m/pul3G/N6QBQvxXwv85AXokQq8G7dztUGOwqh9n88W81jk3r4DQBuipwcgOc/fZ8uocx20w3zDdhDYAbCFezACDhDYAACRweT8AAEggtIFZ6tpSAGDzCG0AAEhgjTYAACRwRhsAABI4ow098s53vrMceOCB7d5kO+GEE8p1113X7i3O4YcfXn7v936v3Zvtk5/8ZPnbv/3bdq9bXvnKV5Z3vOMd7d5sF154YTn11FPbvV84/fTTy1577dXu9dvf/M3flLVr17Z789t3333LYYcdVp785CeXXXbZpb23G+67775y6623luuvv76cccYZ7b1Al0VoG4bRg3HLLbfMdMUf//EfjzyGhYzf//3fb7/KsL/6q78a+ZgujA0vHtqjGPa+971v5GO+9rWvtZ/Rf0ceeeTIOahj5cqVM1deeWX72d33X//1XzNHHXXUyGM1DKMbw9IR6Ik99tijOYPXFatXr263Fu9hD3tYuzXsgQceaLe65xGPeES7NexnP/tZuzXbwx/+8Har/+abg3DAAQeUr371q5v1vJo0K1asKB/96EfLSSed1N4DdI3Qhp542cte1m51wwtf+MJ2a/HGxWWXQ3vccQnt+f9u995773LppZeW5cuXt/f0SywJO/HEE9s9oEuENvRE10J72bJlZdWqVe3e4vQ1tLfbbrt2a5jQnv/v9tOf/nS71V8nn3xyedrTntbuAV0htKEnXvziF7db3bH//vu3W4vT19AetyRGaI/+uz3mmGPKypUr271+e9e73tVuAV0htKEHYhnGTjvt1O51x6YuHxkXl+PW8U66cWu077///nZrNqF9TLvVf4ceemjZeeed2z2gC1zeD3rgr//6r8sf/dEftXuzff3rXy8XX3xxu7f17brrruVNb3pTuzfb3XffvUnrak855ZR5L4N33HHHldNOO63d65Zxf49xvO9973vbvV/4j//4j2aOp8GLXvSicsUVV7R7pVlK8e1vf7vdmw6HHHJIueiii9o9oAuGLkViGEa3xje+8Y32gmDD3vjGN458zNYaO++8c/udjPbsZz975OPGjTVr1rSPHnb00UePfEwXxsknn9wexbC3ve1tIx+ztcbBBx/cfifD/vEf/3HkY7LHgQce2H4Ho5166qkzK1asGPnYSRzxb+X4449vv/vR4uOjHmsYxmQOS0eg4+ISYL/+67/e7g275JJL2q2lcc8995QvfelL7d6wTVmnvSmXweuCSV4SM4nr4sddzvLKK69s3hTpjjvuaO+ZfPFvZcOLyOaSfvPZbbfd2i2gC4Q2dNxLX/rSdmvYN7/5zfLDH/6w3Vs6gz/un2tTQntc9P385z9vt7pnU646srVM4pyP+72Ea665pt3qnnhXyPlsu63/bUOX+BcLHffyl7+83Rq21Gezq3GhvSlXS5nEs6tbwiSf0Z7EnyKMm694K/OumpmJnziP1uXnN0wjoQ0dN+6M9uc+97l2a2lddtll7dawuIpCvOHIYvR16cgkH9ckvriZxhdcQhu6RWhDhz3nOc8pj3vc49q92eKKHl/4whfavaU37ntZ7GX++voW7JtyHe2tRWhvPZP8PAAWR2hDh41bNjLuLPJSuPzyy9utYYtdpz3uzG+XA2vccc13He2tRWhvPeOeB13+HQSYRkIbOqwLy0aqceu0V69e3W4tTF8Da5KPS2hvPX39iQ1MI6ENHRVXXBi35OKzn/1suzUZrr766nZrWCx/ecYzntHuPbS+BlZXrzqyVHM+jT/ZsHQEukVoQ0cdcMAB7dawG2+8sdx2223t3uRYu3ZtuzVsMeu0p/FMptAe1tfnQV+PC6aR0IaOetnLXtZuDZuUy/rNNW6d9pYK7S6f8Rt3Rtsa7WFCG5h0Qhs66rd+67farWGTtj67Ghfai1mnPY2BNclntJfqe5vk+docfT0umEZCGzroqU99atl9993bvdnWr19fPv/5z7d7k+Xaa68td911V7s326/8yq80x7UQ40Kky1dlmOS1uZO4HrqvV+cY9/x2Rhu6RWhDB427rN+4q3tMgnHX017oZf76+sti4wJrqZeOjFs/vlRR29frTff1hSRMI6ENHTRuffakLhupxr0QWOg67b6e8ZvEs8bVJM55X58HfT0umEbbbBgzD24CXbFu3bqy4447tnuznXnmmeUHP/hBuzd5nvSkJ5U3vOEN7d5scaWU3Xbbrd2b33XXXVee/exnt3uz7bXXXs1VV7po3HHtscce5ZZbbmn3tr5TTjmlvOMd72j3Znv7299eTj311HZv67ngggvKYYcd1u7Ndsghh5SLLrqo3euWc889t7z+9a9v92Z7zWteU84///x2D+iCCG3DMDoyXvSiF8302e677z7yuAfHt771rfazh+25554jH9OFccMNN7RHMWzDC5CRj9laY82aNe13Muy4444b+Zjs8c///M/tdzDswAMPHPmYLozzzjuvPYphhx9++MjHGIYxmcPSEeiYceuz+2Ah67QtHdn6/DLk1jPJzwNgcYQ2dMy4t13vgxe84AXt1vymcW3uJP8y5FL94mFffxly223n/19zl48LppHQhg55/OMfX571rGe1e/20kDPafT3jN+64ljqwxr0IWKqzx9P4kw1XHYFuEdrQIX0/mx2e8pSnlCc+8Ynt3mjjAquvl3Vb6uOaxBcBXnABk05ow4TZZpu4GNBofV+fXT3UWe1JPLu6JYwLrHvvvbfdWhqTePa4r2e0xy2J6fJxwTQS2jBhZmbiF5VHG/e2633yUNfTnsYz2ktNaG89fT0umEZCGzpin332KY9+9KPbvWF77rlncza8K+Ntb3tb+50P25zQXrFiRbvVLcuWLRv797vUJjH+xv0E4DGPeUy71T3jlk5ZOgLdIrShI8a9G2S8kcl3vvOddq8bxr0V+9Oe9rTmFz/n85Of/KTdGjYu4CfZ8ccf324Nu+OOO9qtpTOJoX3XXXe1W8OOPfbYdqtbYnnY05/+9HZv2A9/+MN2C+gC7wwJHXHVVVfNe+m7008/vbz1rW9t97rjzjvvLLvssku7N9vv/M7vlL/7u79r92a7+uqry/Of//x2b9g111xTLrvssk6s146z+8973vPKAQcc0N4z7Ctf+UrZd999272lcfHFF5eDDjqo3ZstljRdcskl7d7WM+4dFMMNN9xQPvOZzyz5pREXau+99y6vetWr2r3R4vkCdMusd7AxDGPyxvLlyx98W7h5vOIVrxj5uEkfF1xwQXsEw0477bSRj4nx/ve/v/2s6XD22WePnIetOdauXdt+N8M2vEgY+ZjsccIJJ7TfwXTY8GJ75DwYhjG5w9IR6IAXv/jF7dZoV1xxRbvVLeO+79/8zd9st4Z94hOfaLemw8c//vF2a+lM4tKRaXsefOhDH2q3gK4Q2tAB49ZnX3755WXdunXtXrfE9z6fX/u1X5t3WUkspfjmN7/Z7vXbzTffPBEvpCYxtGPt+j/8wz+0e/126623lk9+8pPtHtAVQhs6YL61sWEp1sZuKTfddFP53//933Zv2OrVq9utYePW5vZJrFWfBJMY2iF++XXcL0X2xatf/ep2C+gSoQ0TbuXKlWXXXXdt94atXbu23eqmz3/+8+3WsHFvXHP99deXE088sd3rpyOPPLJ84xvfaPeW1rjQXspfOo2rcBx11FHtXj/F8zx+igN0j9CGCTdu2UhERteXUIxbPjLujHZ4z3veU97ylre0e/1x9913N2+3P0lLBcZds3qpr+px4YUXNpfEu/baa9t7+uM1r3lN8zwHuklow4QbF9pdP5sdxl1P+1nPetZDvvHImWeeWfbaa69ywQUXtPd0W1yqMaLx0ksvbe+ZDJO6dKT69re/XVatWlUOPvjgcuWVV7b3dtdHPvKRsvvuu5fzzz+/vQfoItfRhgkX10+Odw0cJd6k5rbbbmv3umvcEpGvf/3rzRnehXrGM57RvDtkl643HEsv4qcT3/3ud9t7Jk9E7E477dTuzfbVr361rF+/vt2bHPvtt1/Zfvvt273J14XnAbA4QhsAABJYOgIAAAmENgAAJBDaAACQQGgDAEACoQ0AAAmENgAAJBDaAACQQGgDAEACoQ0AAAmENgAAJBDaAACQQGgDAEACoQ0AAAmENgAAJBDaAACQQGgDAEACoQ0AAAmENgAAJBDaAACQQGgDAEACoQ0AAAmENgAAJBDaAACQQGgDAEACoQ0AAAmENgAAJBDaAACQQGgDAEACoQ0AAAmENgAAJBDaAACQQGgDAEACoQ0AAAmENgAAJBDaAACQQGgDAEACoQ0AAAmENgAAJBDaAACQQGgDAEACoQ0AAAmENgAAJBDaAACQQGgDAEACoQ0AAAmENgAAJBDaAACQQGgDAEACoQ0AAAmENgAAJBDaAACQQGgDAEACoQ0AAAmENgAAJBDaAACQQGgDAEACoQ0AAAmENgAAJBDaAACQQGgDAEACoQ0AAAmENgAAJBDaAACQQGgDAEACoQ0AAAmENgAAJBDaAACQQGgDAEACoQ0AAAmENgAAJBDaAACQQGgDAEACoQ0AAAmENgAAJBDaAACQQGgDAEACoQ0AAAmENgAAJBDaAACQQGgDAEACoQ0AAAmENgAAJBDaAACQQGgDAEACoQ0AAAmENgAAJBDaAACQQGgDAEACoQ0AAAmENgAAJBDaAACQQGgDAEACoQ0AAAmENgAAJBDaAACQQGgDAEACoQ0AAAmENgAAJBDaAACQQGgDAEACoQ0AAAmENgAAJBDaAACQQGgDAEACoQ0AAAmENgAAJBDaAACQQGgDAEACoQ0AAAmENgAAJBDaAACQQGgDAEACoQ0AAAmENgAAJBDaAACQQGgDAEACoQ0AAAmENgAAJBDaAACQQGgDAEACoQ0AAAmENgAAJBDaAACQQGgDAEACoQ0AAAmENgAAJBDaAACQQGgDAEACoQ0AAAmENgAAJBDaAACQQGgDAEACoQ0AAAmENgAAJBDaAACQQGgDAEACoQ0AAAmENgAAJBDaAACQQGgDAEACoQ0AAAmENgAAJBDaAACQQGgDAEACoQ0AAAmENgAAJBDaAACQQGgDAEACoQ0AAAmENgAAJBDaAACQQGgDAEACoQ0AAAmENgAAJBDaAACQQGgDAEACoQ0AAAmENgAAJBDaAACQQGgDAEACoQ0AAAmENgAAJBDaAACQQGgDAEACoQ0AAAmENgAAJBDaAACQQGgDAEACoQ0AAAmENgAAJBDaAACQQGgDAEACoQ0AAAmENgAAJBDaAACQQGgDAEACoQ0AAAmENgAAJBDaAACQQGgDAEACoQ0AAAmENgAAJBDaAACQQGgDAEACoQ0AAAmENgAAJBDaAACQQGgDAEACoQ0AAAmENgAAJBDaAACQQGgDAEACoQ0AAAmENgAAJBDaAACQQGgDAEACoQ0AAAmENgAAJBDaAACQQGgDAEACoQ0AAAmENgAAJBDaAACQQGgDAEACoQ0AAAmENgAAJBDaAACQQGgDAEACoQ0AAAmENgAAJBDaAACQQGgDAEACoQ0AAAmENgAAJBDaAACQQGgDAEACoQ0AAAmENgAAJBDaAACQQGgDAEACoQ0AAAmENgAAJBDaAACQQGgDAEACoQ0AAAmENgAAJBDaAACQQGgDAEACoQ0AAAmENgAAJBDaAACQQGgDAEACoQ0AAAmENgAAJBDaAACQQGgDAEACoQ0AAAmENgAAJBDaAACQQGgDAEACoQ0AAAmENgAAJBDaAACQQGgDAEACoQ0AAAmENgAAJBDaAACQQGgDAEACoQ0AAAmENgAAJBDaAACQQGgDAEACoQ0AAAmENgAAJBDaAACQQGgDAEACoQ0AAAmENgAAJBDaAACQQGgDAEACoQ0AAAmENgAAJBDaAACQQGgDAEACoQ0AAAmENgAAJBDaAACQQGgDAEACoQ0AAAmENgAAJBDaAACQQGgDAEACoQ0AAAmENgAAJBDaAACQQGgDAEACoQ0AAAmENgAAJBDaAACQQGgDAEACoQ0AAAmENgAAJBDaAACQQGgDAEACoQ0AAAmENgAAJBDaAACQQGgDAEACoQ0AAAmENgAAJBDaAACQQGgDAEACoQ0AAAm2ed4LXjjzwAMPlJmZmfYuAABg85Ty/zJIjcd+uEO2AAAAAElFTkSuQmCC;" parent="1" vertex="1">
          <mxGeometry x="237.60999999999999" y="140" width="164.78" height="165" as="geometry" />
        </mxCell>
        <mxCell id="EHiVDNENzDMnCt2iVOXm-10" value="Авторизация&amp;nbsp;" style="text;html=1;align=center;verticalAlign=middle;whiteSpace=wrap;rounded=0;spacing=2;fontSize=26;" parent="1" vertex="1">
          <mxGeometry x="290" y="310" width="60" height="30" as="geometry" />
        </mxCell>
        <mxCell id="EHiVDNENzDMnCt2iVOXm-11" value="Логин" style="rounded=0;whiteSpace=wrap;html=1;align=left;" parent="1" vertex="1">
          <mxGeometry x="237.61" y="350" width="162" height="20" as="geometry" />
        </mxCell>
        <mxCell id="EHiVDNENzDMnCt2iVOXm-12" value="Пароль" style="rounded=0;whiteSpace=wrap;html=1;align=left;" parent="1" vertex="1">
          <mxGeometry x="237.61" y="380" width="162" height="20" as="geometry" />
        </mxCell>
        <mxCell id="EHiVDNENzDMnCt2iVOXm-13" value="Войти" style="rounded=1;whiteSpace=wrap;html=1;" parent="1" vertex="1">
          <mxGeometry x="269.5" y="410" width="101" height="30" as="geometry" />
        </mxCell>
        <mxCell id="EHiVDNENzDMnCt2iVOXm-26" value="" style="whiteSpace=wrap;html=1;aspect=fixed;" parent="1" vertex="1">
          <mxGeometry x="83.61" y="1090" width="470" height="470" as="geometry" />
        </mxCell>
        <mxCell id="EHiVDNENzDMnCt2iVOXm-27" value="" style="shape=image;verticalLabelPosition=bottom;labelBackgroundColor=default;verticalAlign=top;aspect=fixed;imageAspect=0;image=data:image/png,iVBORw0KGgoAAAANSUhEUgAAAtoAAALbCAYAAADEsieWAAAAAXNSR0IArs4c6QAAAARnQU1BAACxjwv8YQUAAAAJcEhZcwAADsMAAA7DAcdvqGQAACvASURBVHhe7d0LkGRVecDxAyosD1ejuNEIEUVcDVIaizWg5UoUHwGFIIUkomj5qAIiFigx75SpVJJCUFYF1MhLRTGRPECibCEgSIkPFKIUxEKJEjQETKLALoiYyX6Xe9ae6Z5mZne/nb63f7+qU31vz/Ts3LO98O87Z25v85xVvzFTZmYKAACw5WzzG/s9/8HM1toAALDFbLNhSGwAANjCtm1vAQCALUhoAwBAAqENAAAJhDYAACQQ2gAAkEBoAwBAAqENAAAJhDYAACQQ2gAAkEBoAwBAAqENAAAJhDYAACQQ2gAAkEBoAwBAAqENAAAJhDYAACQQ2gAAkEBoAwBAAqENAAAJhDYAACQQ2gAAkEBoAwBAAqENAAAJhDYAACQQ2gAAkEBoAwBAAqENAAAJhDYAACQQ2gAAkEBoAwBAAqENAAAJhDYAACQQ2gAAkEBoAwBAAqENAAAJhDYAACQQ2gAAkEBoAwBAAqENAAAJhDYAACQQ2gAAkEBoAwBAAqENAAAJhDYAACQQ2gAAkEBoAwBAAqENAAAJhDYAACQQ2gAAkEBoAwBAAqENAAAJhDYAACQQ2gAAkEBoAwBAAqENAAAJhDYAACQQ2gAAkEBoAwBAAqENAAAJhDYAACQQ2gAAkEBoAwBAAqENAAAJhDYAACQQ2gAAkEBoAwBAAqENAAAJhDYAACQQ2gAAkEBoAwBAAqENAAAJhDYAACQQ2gAAkEBoAwBAAqENAAAJhDYAACQQ2gAAkEBoAwBAAqENAAAJhDYAACQQ2gAAkEBoAwBAAqENAAAJhDYAACQQ2gAAkEBoAwBAAqENAAAJhDYAACQQ2gAAkEBoAwBAAqENAAAJhDYAACQQ2gAAkEBoAwBAAqENAAAJhDYAACQQ2gAAkEBoAwBAAqENAAAJhDYAACQQ2gAAkEBoAwBAAqENAAAJhDYAACQQ2gAAkEBoAwBAAqENAAAJhDYAACQQ2gAAkEBoAwBAAqENAAAJhDYAACQQ2gAAkEBoAwBAAqENAAAJhDYAACQQ2gAAkEBoAwBAAqENAAAJhDYAACQQ2gAAkEBoAwBAAqENAAAJhDYAACQQ2gAAkEBoAwBAAqENAAAJhDYAACQQ2gAAkEBoAwBAAqENAAAJhDYAACQQ2gAAkEBoAwBAAqENAAAJhDYAACQQ2gAAkEBoAwBAAqENAAAJhDYAACQQ2gAAkEBoAwBAAqENAAAJhDYAACQQ2gAAkEBoAwBAAqENAAAJhDYAACQQ2gAAkEBoAwBAAqENAAAJhDYAACQQ2gAAkEBoAwBAAqENAAAJhDYAACQQ2gAAkEBoAwBAAqENAAAJhDYAACQQ2gAAkEBoAwBAAqENAAAJhDYAACQQ2gAAkEBoAwBAAqENAAAJhDYAACQQ2gAAkEBoAwBAAqENAAAJhDYAACQQ2gAAkEBoAwBAAqENAAAJhDYAACQQ2gAAkEBoAwBAAqENAAAJhDYAACQQ2gAAkEBoAwBAAqENAAAJhDYAACQQ2gAAkEBoAwBAAqENAAAJhDYAACQQ2gAAkEBoAwBAAqENAAAJhDYAACQQ2gAAkEBoAwBAAqENAAAJhDYAACQQ2gAAkEBoAwBAAqENAAAJhDYAACQQ2gAAkEBoAwBAAqENAAAJhDYAACQQ2gAAkEBoAwBAAqENAAAJhDYAACQQ2gAAkEBoAwBAAqENAAAJhDYAACQQ2gAAkEBoAwBAAqENAAAJhDYAACQQ2gAAkEBoAwBAAqENAAAJhDYAACQQ2gAAkEBoAwBAAqENAAAJhDYAACQQ2gAAkEBoAwBAAqENAAAJhDYAACQQ2gAAkEBoAwBAAqENAAAJhDYAACQQ2gAAkEBoAwBAAqENAAAJhDYAACQQ2gAAkEBoAwBAAqENAAAJhDYAACQQ2gAAkEBoAwBAAqENAAAJhDYAACQQ2gAAkEBoAwBAAqENAAAJhDYAACQQ2gAAkEBoAwBAAqENAAAJhDYAACQQ2gAAkEBoAwBAAqENAAAJhDYAACQQ2gAAkEBoAwBAAqENAAAJhDYAACQQ2gAAkEBoAwBAAqENAAAJhDYAACQQ2gAAkEBoAwBAAqENAAAJhDYAACQQ2gAAkEBoAwBAAqENAAAJhDYAACQQ2gAAkEBoAwBAAqENAAAJhDYAACQQ2gAAkEBoAwBAAqENAAAJhDYAACQQ2gAAkEBoAwBAAqENAAAJhDYAACQQ2gAAkEBoAwBAAqENAAAJhDYAACQQ2gAAkEBoAwBAAqENAAAJhDYAACQQ2gAAkEBoAwBAAqENAAAJhDYAACQQ2gAAkEBoAwBAAqENAAAJhDYAACQQ2gAAkEBoAwBAAqENAAAJhDYAACQQ2gAAkEBoAwBAAqENAAAJhDYAACQQ2gAAkEBoAwBAAqENbLTNNttsvK3boe4P3scvzJ0f8zTatM+P5wVMH6ENbPSIRzyiPOxhD2uCIMayZcvKwx/+8LLttg/+p6Lez2x1Trbffvuy3XbbNdt9E8+BeG7U7cWKxww+j6bF4L+netzTdPww7eJf+8yDm8A0qyEQMTQzM1P+7//+rwnvn/3sZ8198bGf//znzXbc8gsR2A888EAzZzFPEVex31U1BOM2ngsx6n4cY43HxRxj/Zrxwq3Lc7NY9bhjzuLfTfyb+ulPf9rcB/Sf0AYaEdCPfOQjy3333dfEQQ2DGtZxG9Ed2zW8eFB9QbLTTjv1IiJrHIYa2vXFVYRyhGJ9fizUjjvu2MxNPI9C11+MLFTMV8xfzOn999/fHH8c92LmDuguoQ00Igje9KY3lX322afZjzOXoUZ3uOqqq8qnPvUpZ+QGxPzEcpF6pvclL3lJecUrXrFxzrqohmGN7AjDj33sY+X6669vtmMs5sx0fK3f/d3fLatXr25elMRcxdet0d1ncZwh5utrX/taOffcc8u999678X6g34Q20IgAipj67d/+7Wa7qkG0fv36ct5555UTTjihOevNLzzqUY8q69atK4ceemj54Ac/2PxkoMsROfi9RxTH2dfbb7+9HHnkkeXLX/5ys1/P4i9EfL1TTjmlHHvssU10x9esL076Lo435ituL7744vLa1762mbeFzh3Qbf0/nQAsSD1zWc/ERhzFiDNxEQmxDjn2F3oWs49iHiIwYx4iFGN/hx12aKIpzmK/+93vLjvvvHMzhzFvXR31777+/cff/YoVK8ppp53W/MQj5iCeB3H88fE6N4O3c9WvG4+NX7KtX7vvox5zbMecxb5lIzA9hDawKNP+I+/6QiPiOmI79g866KBy9tlnl912260Jzflis+v23nvvZulQxHaEY6jPhzjmiEhLIgB+QWgDLFBEZA3M+OW+2H/5y19eTjrppOZMdo3vPoqz0OGXf/mXy5lnnrkxtmMO4pjjtq8vMAA2ldAGWKD64/+IyviF0AMPPLB8+tOfbs5kh4jRWHfcx+CMdflxxjqWkey5557l7//+78uqVauaj8V8DN4C8CChDbBAsbY2zlzHmtv4pdE1a9Y08VnX3kZ8R2z2cQ1uvIiIy9PVFxGxZvuMM84o+++//8b7unylFYAMQhtgASIm44x2nNk95JBDyvve977yhCc8obm//qJojNiP4Izgrme+I1DjcXE7aSO+v7kj7o8XC7EUJs7Q17P0cZxxGy80YrnIypUry1lnnVWe/vSnN/v16hoLFZ9fX5jEn1H/7D6NmMO4jUv6xdzEsXpBAtMj/ovoZ31AE5HnnHNOOeKIIzZGY4g4iBiKs7bx8bhEW8TCtIl5iDl5ylOeUj73uc+VJz/5yU0cxn0xP/HxGHFf7MdtRNb3vve9Jkbj6iSLDdGtIb7XuWL9eVyGbtddd23+3iOsY8wVHws33XRTOeCAA8qdd97ZRGS9v4o5irP/Rx99dPM8q3MQ8xEfi8//yle+Ui666KJmf9LmaHPEMcZPAyK0v/vd75ZLLrmkeUERzw9gOsR/ZQ3DmPKxIYBmPv7xj8/cf//9MxvCZ2ZDCDQjxG3c/+EPf3hmQ0iNfHzfx4b4a+Zo1apVM+vWrWvmY0NENWNDUDe369evb+Yrtu+5556Z73znOzN77bXXzOMe97iZDbHVPD7mb5LGhrAdGvG97rfffjO33HJLc2wbwrA5rlHiOO+7776ZlStXzmy33XYj5y6+5vvf//5mzupzKtT9eL595CMfmVm+fPnI77HLI4495iX+7mN7++23HzlHhmH0c1g6ArAIG+KpOQscZ2bjNs5YVrG0Is7Oxrj55pvLq1/96rIhVsuPfvSj5kzthqhsHjNJI76nwVHvu/baa8sb3/jG8pOf/KQ9umHxeXH2u85B7MdxLlR8/obYbv7MuI3lNYPfWx9GfU7EvMSZ+tgGpofQBliECOwIphqlsaQibiOkYklAhFS8VXm8i+INN9zQLB+J2KoRGY+bpDFXfI8hPhbLOeIt5b///e/PekFRxefE/THi+OtcLFSs664vWCK067z2adS/93gexBzFdrxYA6aD0AZYoIikiMoIpYimGCFiMURo/vjHPy7HH398c0Y74irCOwI8HhujC+L7ju81IvHGG28sf/AHf9Acx9xjqPMQwVyPczHrq+NzB+OzzmcfxTHGvEZ8j3rRAvST0AZYpBqbo6Iy4vS2225rgqp+XtzW7S6I7zW+/xC3P/jBD8bGYcxDjE05xsE57NIcLVTX/u6BLUtoA2whNar6FlZCEWDTCG2AzTR4VnbUWe4u6+MLB4CtRWgDbKbBZSKh67Ed33/fXjAALAWhDbAANaTrGd56tY0YccWM+GXA+GW32J8b3l3Wl+MAWApCG2CBIjr/+7//u6xdu7Z5h79LL720/Mu//Eu56qqryhe/+MVy8cUXl6uvvnrjtbb7wJltgE0ntAEWId5G+3Wve1057LDDyqGHHtq8Kc0rX/nKcvDBB5ejjjqqvPWtby133HGHM8EACG2AhaqXvKuXuqvXgI7747J+cbtu3brmetIAILQBFiiWUcSykPrGI3VtdmzHqGex43MAQGgDLFCEdI3sCOy6fjn2423W40x3vEtkPePddfX44tgeaq12zM3mrOfenMdOknocfTkeYPMIbYBFirAO9Wx2iACPuIr7dtxxx+a+roq3VI9jidtly5aVP/uzP9t439yAjMCOY45lNHUpzWLFC5N4+/rQ5UCtbyMfx1DnIwYwveK/aH5jB2jOxJ5zzjnliCOOmBUIEQ01puLjxx57bG/O2G4pNQ4jtGJuYu66PEdxHBG+T3jCE8qFF15Y9thjj7LDDjsMRXA8J+JzYwnNvvvuW/71X/+12Y/7B8V8rFmzphx99NHN86x+nTpX8fj4c9797nc3L1i6LI6tvij5n//5n/Lv//7v/r3AFBPaQENob7qIy3omN7ZjzubGZpdEKO68887lYx/7WFm9enUT2fX5MKguoYnbZz7zmeXWW29t9uee1Z4vtONxsV2vPx6/UFo/1kVx3PXfS4zzzjuvnHjiiZ1/8QBsOqENNIT2pqvzFXO1fPnysvvuu3c6tB/1qEeVP//zP28iO54XYVQARyjHFVbWr19fVq1aVb7//e838zD32OO+UaEdAVrnLcTzLPa7Ks7Mx9hpp52afyMR2sccc4yr0MAUE9pAQ2hvupijOJO9YsWKcvLJJ5f999+/+QXCLosz2vGciEgctWwkxHPi7rvvLn/4h39YPvGJTzTPi/j8eL4Mmi+04/MituO+rkd2qMdS/32cf/755c1vfrMz2jDFuv1fNYCtKAIxYrCGYt2P9cwR2aeccko55JBDmjPCj370ozs7HvOYxzQvFOLFQ/xiZxxnRHUs7YiIjDPZsf2jH/2o/MVf/EUTlBHYm3LmNpaphLrkpstqZMdzIo6nyz/VALYMoQ2wCHVdcYiYChGmp59+ehPZcZWOGPE5XRgRhXNH3D9XPda77rqruY23on/Xu97V/JQj3qQnHrcpZ6XjMTGncdY3ll2Eud9jl0bEdph7Vh+YTkIbYIEiniKkIgzr5eh22WWX5kz2QQcd1AR2nNEcFWBdGqNEBMfH4mx9RPZ73/ve5kx2zEk9e1uXgCxGfXwdsR/z28VR5y5eNMRxxHNkvvkEpoPQBliEemY3wurxj398OeOMM5oz2TUS47ZLsb1QscQjji2Wh7zzne9szuDHL0HGGu36deK4FxPa9XHxmBqnXR7xYiPmIOYqnh/33HNPcz8wveK/cv4rADRnI/0y5Hg1TiM4H/vYxzbXfX7Vq161cb4isOovxC12CcVSmRuCNX7nisD+8Y9/XE466aTy4Q9/uAnJ+th4btTtOO65a5Pjvvl+GTK+Trj99tvLnXfeOfT9dEkcV/zbiOON58Fll13WLK+pS2KA6SO0gYbQHi/mIUbEdPzC4Jlnnlle+tKXNh+r8VjDMeYubutZ7jjzG79U2JV5i++/HksN6vje3/72t5dzzz23Od577723+dz42EOJrzdfaMd2RPxZZ51V/vRP/3Qo0rumHlPcxrFEZNcXE8D0EdpAQ2iPF/MQcxKXuvvQhz5UDj/88Oa+WIdbYzP2Q+zXERF50003Neu3Q/2cSVaPJ8R2hGIskfnUpz618coj9Tkw+LnzWUhox1nyWJLSt7O/C5kfoL+ENtAQ2uPFPMQZ6uc+97nliiuuaK6+EctHIkJjruLjsR23MT91PfNf/uVfNr84WD+vS+qZ2HobZ+VjTXbcxhntev9DWUxoxzZAX3Trv/oASyjCMOIyQjou6RcvPiIi5561jMiOK3P8yZ/8SfnABz7QfF48Js7WdmFE7MaIdcYx4nuPQI5f7ovra8dSmAjkGswAjCa0ARYowjJCM2I7tiOoI0xDPTsbtxHZZ599dvngBz+48czvQs/+TqoI73q8sQxm7osLAIYJbYAFiriMs7l1CUjEc/xyZNwfIRpnfuPjsVQk3jEx7quRHY+p25M+4njmjngREWe343Yxvwg5TnytQXP3AbpOaAMswuAa4zjDG9txGyEdZ3vjMnUXXHBBsx0hGuEa6m1X1e8/XkyELXk8MYciG+gjoQ2wmSKo4+ojsawkgjvWZAOA0AbYTPVsbF1KEUssAEBoA2ymGth1CUTs1/sAmF5CG2AzRVTXwA71lyV5aHXuBucPoC/83wCYejX0BsdizP38+ouCg+EoIofFnMRcxQuTGH2co7nPqzqA6SC0gUWrYdSXkWVuUI36s7s8MoJx1J/T5QFMN/8VABYtzkL2aWwNEaWj/uwuj4wz0KP+nC4PYLoJbWBRIhjjutF9GnFMdWyu+nXqGc3Brz3qz+7yGDy2zWWOgD4S2sCC1FiYG499GDWK67FtrsGvOV909WEMzlmMzVG/Xv1afRl1jgbnCpge8S/eb+gAzTsennPOOeWII47YGAVh8BfWbrnllvJv//ZvGz/WF3Hd63izmXvuuad84QtfKGeddVbzzo6DP/qv0fTc5z63XH755c3n1/tjjuoyirvuuqt8+ctfnpplA/XNeY477rjyn//5n807R8499pi3NWvWlKOPPnrWO2uG+vjvfe975cYbb2w+3icxH/EiK962/lvf+lZ5z3ve07xNv2UlMB2ENtCYL7RDjYJ6G6HUpzNzcSwRfHHMZ5xxRjnxxBOb/cE1yPE540I73Hfffc07RPZpbsaJFyhxvPECZZ999mleiIWFhnbMW31zn/g6MefxsT7NX8xFHNd2221X/umf/qm8/vWvb6J78LkF9JelI8BYEQQRSoNLH2K/bvdhhAjAepz1+BZr2bJlzePjLGZ8jblj7p/b9RHxGLf17efj2Bcjnlvx2MG56ds8xfHEPMVtfQES28B08K8dGCtiIQIhzjzWCIrbPo16NjsCOYI7wmhTxHKTOFtZz9rOHXP/3K6POKZ4btSz0RHac89mjzM4NzH3Ed59m6c4pvriK44tnlvOZsP0ENrAQ4pQGDxbGaHQpxHHFrcRRhGMP/3pT5v9h1I/p97GWd0ddthh3sfG/X0aEY51u75YWYyI8hjxuBrsYfDP6Pqoz6n6giJesMb9wHQQ2kAjIqAGQYRAhE9dPxtqKNSYqvtdH6GecYxji9vBFxWD4vNjTuK2nqGMuRr8WnEbX2dUTNXP68sIMVfxXImz+LFGfT4xH/H8inkLgz8hCfH4wbnswwiDxzQY3MB0ENpAI/7nH1EQ0VRDc/AM41xxXx9GVeOnRvd8MRRxOHgWNuIpjPqag/f1cVT1hUU8X8bNW3ysztt8L2bm/hldHqEec4j7Yo7i+IHpILSBRkRAjcy4/FjcxhnKiIK+jzjOON4azaGG0qCIpkc+8pHN569bt65Zkx1Gfc1pGLHEJm7j7HTMX2yPEnMZa9dj/uplE+Mx9ev0ecSx33333c1tBHfM2XwvRoD+iX/tw/83AaZORMB+++1XnvjEJzbRFCEZ4bl8+fL2M/orwjl+SS3WV998883luuuua8IoQqmKOIrlDb/0S79UVq9e3YRivDCJOYr7p1GN67jaymc/+9lmTuqLj0Exd3vvvXf51V/91Y0/JYnn26gXM31TX7zF+v3bb7+9XHPNNbNe0AH9JrSBRoRPBFHcRjxFPEZ4xjWS+66GcoRfxGLsR0TGqGJu6pnI+HjMUURjfP60iudKVZ8/ceZ6rrg/Yry+OBmc176L443jr2e3YztCe/BFHNBfQhuYJUJgGs40zhXHHWoMjZuD+vFpnatBg3MRHmo+pnXOFjo/QL8IbQAASOCXIQEAIIHQBgCABEIbAAASCG0AAEggtAEAIIGrjgALMnhZtnqpsvm4hNnmq/O9uZeFm+/vamv/HQ0+f/pk8Lg29+8K6B+hDTwkAbH11YCrcx8WM/+Djxs092uGrfH32sfn0Ny/m/pul3G/N6QBQvxXwv85AXokQq8G7dztUGOwqh9n88W81jk3r4DQBuipwcgOc/fZ8uocx20w3zDdhDYAbCFezACDhDYAACRweT8AAEggtIFZ6tpSAGDzCG0AAEhgjTYAACRwRhsAABI4ow098s53vrMceOCB7d5kO+GEE8p1113X7i3O4YcfXn7v936v3Zvtk5/8ZPnbv/3bdq9bXvnKV5Z3vOMd7d5sF154YTn11FPbvV84/fTTy1577dXu9dvf/M3flLVr17Z789t3333LYYcdVp785CeXXXbZpb23G+67775y6623luuvv76cccYZ7b1Al0VoG4bRg3HLLbfMdMUf//EfjzyGhYzf//3fb7/KsL/6q78a+ZgujA0vHtqjGPa+971v5GO+9rWvtZ/Rf0ceeeTIOahj5cqVM1deeWX72d33X//1XzNHHXXUyGM1DKMbw9IR6Ik99tijOYPXFatXr263Fu9hD3tYuzXsgQceaLe65xGPeES7NexnP/tZuzXbwx/+8Har/+abg3DAAQeUr371q5v1vJo0K1asKB/96EfLSSed1N4DdI3Qhp542cte1m51wwtf+MJ2a/HGxWWXQ3vccQnt+f9u995773LppZeW5cuXt/f0SywJO/HEE9s9oEuENvRE10J72bJlZdWqVe3e4vQ1tLfbbrt2a5jQnv/v9tOf/nS71V8nn3xyedrTntbuAV0htKEnXvziF7db3bH//vu3W4vT19AetyRGaI/+uz3mmGPKypUr271+e9e73tVuAV0htKEHYhnGTjvt1O51x6YuHxkXl+PW8U66cWu077///nZrNqF9TLvVf4ceemjZeeed2z2gC1zeD3rgr//6r8sf/dEftXuzff3rXy8XX3xxu7f17brrruVNb3pTuzfb3XffvUnrak855ZR5L4N33HHHldNOO63d65Zxf49xvO9973vbvV/4j//4j2aOp8GLXvSicsUVV7R7pVlK8e1vf7vdmw6HHHJIueiii9o9oAuGLkViGEa3xje+8Y32gmDD3vjGN458zNYaO++8c/udjPbsZz975OPGjTVr1rSPHnb00UePfEwXxsknn9wexbC3ve1tIx+ztcbBBx/cfifD/vEf/3HkY7LHgQce2H4Ho5166qkzK1asGPnYSRzxb+X4449vv/vR4uOjHmsYxmQOS0eg4+ISYL/+67/e7g275JJL2q2lcc8995QvfelL7d6wTVmnvSmXweuCSV4SM4nr4sddzvLKK69s3hTpjjvuaO+ZfPFvZcOLyOaSfvPZbbfd2i2gC4Q2dNxLX/rSdmvYN7/5zfLDH/6w3Vs6gz/un2tTQntc9P385z9vt7pnU646srVM4pyP+72Ea665pt3qnnhXyPlsu63/bUOX+BcLHffyl7+83Rq21Gezq3GhvSlXS5nEs6tbwiSf0Z7EnyKMm694K/OumpmJnziP1uXnN0wjoQ0dN+6M9uc+97l2a2lddtll7dawuIpCvOHIYvR16cgkH9ckvriZxhdcQhu6RWhDhz3nOc8pj3vc49q92eKKHl/4whfavaU37ntZ7GX++voW7JtyHe2tRWhvPZP8PAAWR2hDh41bNjLuLPJSuPzyy9utYYtdpz3uzG+XA2vccc13He2tRWhvPeOeB13+HQSYRkIbOqwLy0aqceu0V69e3W4tTF8Da5KPS2hvPX39iQ1MI6ENHRVXXBi35OKzn/1suzUZrr766nZrWCx/ecYzntHuPbS+BlZXrzqyVHM+jT/ZsHQEukVoQ0cdcMAB7dawG2+8sdx2223t3uRYu3ZtuzVsMeu0p/FMptAe1tfnQV+PC6aR0IaOetnLXtZuDZuUy/rNNW6d9pYK7S6f8Rt3Rtsa7WFCG5h0Qhs66rd+67farWGTtj67Ghfai1mnPY2BNclntJfqe5vk+docfT0umEZCGzroqU99atl9993bvdnWr19fPv/5z7d7k+Xaa68td911V7s326/8yq80x7UQ40Kky1dlmOS1uZO4HrqvV+cY9/x2Rhu6RWhDB427rN+4q3tMgnHX017oZf76+sti4wJrqZeOjFs/vlRR29frTff1hSRMI6ENHTRuffakLhupxr0QWOg67b6e8ZvEs8bVJM55X58HfT0umEbbbBgzD24CXbFu3bqy4447tnuznXnmmeUHP/hBuzd5nvSkJ5U3vOEN7d5scaWU3Xbbrd2b33XXXVee/exnt3uz7bXXXs1VV7po3HHtscce5ZZbbmn3tr5TTjmlvOMd72j3Znv7299eTj311HZv67ngggvKYYcd1u7Ndsghh5SLLrqo3euWc889t7z+9a9v92Z7zWteU84///x2D+iCCG3DMDoyXvSiF8302e677z7yuAfHt771rfazh+25554jH9OFccMNN7RHMWzDC5CRj9laY82aNe13Muy4444b+Zjs8c///M/tdzDswAMPHPmYLozzzjuvPYphhx9++MjHGIYxmcPSEeiYceuz+2Ah67QtHdn6/DLk1jPJzwNgcYQ2dMy4t13vgxe84AXt1vymcW3uJP8y5FL94mFffxly223n/19zl48LppHQhg55/OMfX571rGe1e/20kDPafT3jN+64ljqwxr0IWKqzx9P4kw1XHYFuEdrQIX0/mx2e8pSnlCc+8Ynt3mjjAquvl3Vb6uOaxBcBXnABk05ow4TZZpu4GNBofV+fXT3UWe1JPLu6JYwLrHvvvbfdWhqTePa4r2e0xy2J6fJxwTQS2jBhZmbiF5VHG/e2633yUNfTnsYz2ktNaG89fT0umEZCGzpin332KY9+9KPbvWF77rlncza8K+Ntb3tb+50P25zQXrFiRbvVLcuWLRv797vUJjH+xv0E4DGPeUy71T3jlk5ZOgLdIrShI8a9G2S8kcl3vvOddq8bxr0V+9Oe9rTmFz/n85Of/KTdGjYu4CfZ8ccf324Nu+OOO9qtpTOJoX3XXXe1W8OOPfbYdqtbYnnY05/+9HZv2A9/+MN2C+gC7wwJHXHVVVfNe+m7008/vbz1rW9t97rjzjvvLLvssku7N9vv/M7vlL/7u79r92a7+uqry/Of//x2b9g111xTLrvssk6s146z+8973vPKAQcc0N4z7Ctf+UrZd999272lcfHFF5eDDjqo3ZstljRdcskl7d7WM+4dFMMNN9xQPvOZzyz5pREXau+99y6vetWr2r3R4vkCdMusd7AxDGPyxvLlyx98W7h5vOIVrxj5uEkfF1xwQXsEw0477bSRj4nx/ve/v/2s6XD22WePnIetOdauXdt+N8M2vEgY+ZjsccIJJ7TfwXTY8GJ75DwYhjG5w9IR6IAXv/jF7dZoV1xxRbvVLeO+79/8zd9st4Z94hOfaLemw8c//vF2a+lM4tKRaXsefOhDH2q3gK4Q2tAB49ZnX3755WXdunXtXrfE9z6fX/u1X5t3WUkspfjmN7/Z7vXbzTffPBEvpCYxtGPt+j/8wz+0e/126623lk9+8pPtHtAVQhs6YL61sWEp1sZuKTfddFP53//933Zv2OrVq9utYePW5vZJrFWfBJMY2iF++XXcL0X2xatf/ep2C+gSoQ0TbuXKlWXXXXdt94atXbu23eqmz3/+8+3WsHFvXHP99deXE088sd3rpyOPPLJ84xvfaPeW1rjQXspfOo2rcBx11FHtXj/F8zx+igN0j9CGCTdu2UhERteXUIxbPjLujHZ4z3veU97ylre0e/1x9913N2+3P0lLBcZds3qpr+px4YUXNpfEu/baa9t7+uM1r3lN8zwHuklow4QbF9pdP5sdxl1P+1nPetZDvvHImWeeWfbaa69ywQUXtPd0W1yqMaLx0ksvbe+ZDJO6dKT69re/XVatWlUOPvjgcuWVV7b3dtdHPvKRsvvuu5fzzz+/vQfoItfRhgkX10+Odw0cJd6k5rbbbmv3umvcEpGvf/3rzRnehXrGM57RvDtkl643HEsv4qcT3/3ud9t7Jk9E7E477dTuzfbVr361rF+/vt2bHPvtt1/Zfvvt273J14XnAbA4QhsAABJYOgIAAAmENgAAJBDaAACQQGgDAEACoQ0AAAmENgAAJBDaAACQQGgDAEACoQ0AAAmENgAAJBDaAACQQGgDAEACoQ0AAAmENgAAJBDaAACQQGgDAEACoQ0AAAmENgAAJBDaAACQQGgDAEACoQ0AAAmENgAAJBDaAACQQGgDAEACoQ0AAAmENgAAJBDaAACQQGgDAEACoQ0AAAmENgAAJBDaAACQQGgDAEACoQ0AAAmENgAAJBDaAACQQGgDAEACoQ0AAAmENgAAJBDaAACQQGgDAEACoQ0AAAmENgAAJBDaAACQQGgDAEACoQ0AAAmENgAAJBDaAACQQGgDAEACoQ0AAAmENgAAJBDaAACQQGgDAEACoQ0AAAmENgAAJBDaAACQQGgDAEACoQ0AAAmENgAAJBDaAACQQGgDAEACoQ0AAAmENgAAJBDaAACQQGgDAEACoQ0AAAmENgAAJBDaAACQQGgDAEACoQ0AAAmENgAAJBDaAACQQGgDAEACoQ0AAAmENgAAJBDaAACQQGgDAEACoQ0AAAmENgAAJBDaAACQQGgDAEACoQ0AAAmENgAAJBDaAACQQGgDAEACoQ0AAAmENgAAJBDaAACQQGgDAEACoQ0AAAmENgAAJBDaAACQQGgDAEACoQ0AAAmENgAAJBDaAACQQGgDAEACoQ0AAAmENgAAJBDaAACQQGgDAEACoQ0AAAmENgAAJBDaAACQQGgDAEACoQ0AAAmENgAAJBDaAACQQGgDAEACoQ0AAAmENgAAJBDaAACQQGgDAEACoQ0AAAmENgAAJBDaAACQQGgDAEACoQ0AAAmENgAAJBDaAACQQGgDAEACoQ0AAAmENgAAJBDaAACQQGgDAEACoQ0AAAmENgAAJBDaAACQQGgDAEACoQ0AAAmENgAAJBDaAACQQGgDAEACoQ0AAAmENgAAJBDaAACQQGgDAEACoQ0AAAmENgAAJBDaAACQQGgDAEACoQ0AAAmENgAAJBDaAACQQGgDAEACoQ0AAAmENgAAJBDaAACQQGgDAEACoQ0AAAmENgAAJBDaAACQQGgDAEACoQ0AAAmENgAAJBDaAACQQGgDAEACoQ0AAAmENgAAJBDaAACQQGgDAEACoQ0AAAmENgAAJBDaAACQQGgDAEACoQ0AAAmENgAAJBDaAACQQGgDAEACoQ0AAAmENgAAJBDaAACQQGgDAEACoQ0AAAmENgAAJBDaAACQQGgDAEACoQ0AAAmENgAAJBDaAACQQGgDAEACoQ0AAAmENgAAJBDaAACQQGgDAEACoQ0AAAmENgAAJBDaAACQQGgDAEACoQ0AAAmENgAAJBDaAACQQGgDAEACoQ0AAAmENgAAJBDaAACQQGgDAEACoQ0AAAmENgAAJBDaAACQQGgDAEACoQ0AAAmENgAAJBDaAACQQGgDAEACoQ0AAAmENgAAJBDaAACQQGgDAEACoQ0AAAmENgAAJBDaAACQQGgDAEACoQ0AAAmENgAAJBDaAACQQGgDAEACoQ0AAAmENgAAJBDaAACQQGgDAEACoQ0AAAmENgAAJBDaAACQQGgDAEACoQ0AAAmENgAAJBDaAACQQGgDAEACoQ0AAAmENgAAJBDaAACQQGgDAEACoQ0AAAmENgAAJBDaAACQQGgDAEACoQ0AAAmENgAAJBDaAACQQGgDAEACoQ0AAAmENgAAJBDaAACQQGgDAEACoQ0AAAmENgAAJBDaAACQQGgDAEACoQ0AAAmENgAAJBDaAACQQGgDAEACoQ0AAAmENgAAJBDaAACQQGgDAEACoQ0AAAmENgAAJBDaAACQQGgDAEACoQ0AAAmENgAAJBDaAACQQGgDAEACoQ0AAAmENgAAJBDaAACQQGgDAEACoQ0AAAmENgAAJBDaAACQQGgDAEACoQ0AAAmENgAAJBDaAACQQGgDAEACoQ0AAAmENgAAJBDaAACQQGgDAEACoQ0AAAmENgAAJBDaAACQQGgDAEACoQ0AAAmENgAAJBDaAACQQGgDAEACoQ0AAAmENgAAJBDaAACQQGgDAEACoQ0AAAm2ed4LXjjzwAMPlJmZmfYuAABg85Ty/zJIjcd+uEO2AAAAAElFTkSuQmCC;" parent="1" vertex="1">
          <mxGeometry x="236.21999999999997" y="1145" width="164.78" height="165" as="geometry" />
        </mxCell>
        <mxCell id="EHiVDNENzDMnCt2iVOXm-28" value="Записи" style="rounded=1;whiteSpace=wrap;html=1;" parent="1" vertex="1">
          <mxGeometry x="268.11" y="1360" width="101" height="30" as="geometry" />
        </mxCell>
        <mxCell id="EHiVDNENzDMnCt2iVOXm-29" value="Аналитика продаж" style="rounded=1;whiteSpace=wrap;html=1;" parent="1" vertex="1">
          <mxGeometry x="269.5" y="1440" width="101" height="30" as="geometry" />
        </mxCell>
        <mxCell id="EHiVDNENzDMnCt2iVOXm-31" value="Клиенты" style="rounded=1;whiteSpace=wrap;html=1;" parent="1" vertex="1">
          <mxGeometry x="269.5" y="1400" width="101" height="30" as="geometry" />
        </mxCell>
        <mxCell id="EHiVDNENzDMnCt2iVOXm-32" value="" style="whiteSpace=wrap;html=1;aspect=fixed;" parent="1" vertex="1">
          <mxGeometry x="83.61" y="1600" width="470" height="470" as="geometry" />
        </mxCell>
        <mxCell id="EHiVDNENzDMnCt2iVOXm-33" value="" style="shape=image;verticalLabelPosition=bottom;labelBackgroundColor=default;verticalAlign=top;aspect=fixed;imageAspect=0;image=data:image/png,iVBORw0KGgoAAAANSUhEUgAAAtoAAALbCAYAAADEsieWAAAAAXNSR0IArs4c6QAAAARnQU1BAACxjwv8YQUAAAAJcEhZcwAADsMAAA7DAcdvqGQAACvASURBVHhe7d0LkGRVecDxAyosD1ejuNEIEUVcDVIaizWg5UoUHwGFIIUkomj5qAIiFigx75SpVJJCUFYF1MhLRTGRPECibCEgSIkPFKIUxEKJEjQETKLALoiYyX6Xe9ae6Z5mZne/nb63f7+qU31vz/Ts3LO98O87Z25v85xVvzFTZmYKAACw5WzzG/s9/8HM1toAALDFbLNhSGwAANjCtm1vAQCALUhoAwBAAqENAAAJhDYAACQQ2gAAkEBoAwBAAqENAAAJhDYAACQQ2gAAkEBoAwBAAqENAAAJhDYAACQQ2gAAkEBoAwBAAqENAAAJhDYAACQQ2gAAkEBoAwBAAqENAAAJhDYAACQQ2gAAkEBoAwBAAqENAAAJhDYAACQQ2gAAkEBoAwBAAqENAAAJhDYAACQQ2gAAkEBoAwBAAqENAAAJhDYAACQQ2gAAkEBoAwBAAqENAAAJhDYAACQQ2gAAkEBoAwBAAqENAAAJhDYAACQQ2gAAkEBoAwBAAqENAAAJhDYAACQQ2gAAkEBoAwBAAqENAAAJhDYAACQQ2gAAkEBoAwBAAqENAAAJhDYAACQQ2gAAkEBoAwBAAqENAAAJhDYAACQQ2gAAkEBoAwBAAqENAAAJhDYAACQQ2gAAkEBoAwBAAqENAAAJhDYAACQQ2gAAkEBoAwBAAqENAAAJhDYAACQQ2gAAkEBoAwBAAqENAAAJhDYAACQQ2gAAkEBoAwBAAqENAAAJhDYAACQQ2gAAkEBoAwBAAqENAAAJhDYAACQQ2gAAkEBoAwBAAqENAAAJhDYAACQQ2gAAkEBoAwBAAqENAAAJhDYAACQQ2gAAkEBoAwBAAqENAAAJhDYAACQQ2gAAkEBoAwBAAqENAAAJhDYAACQQ2gAAkEBoAwBAAqENAAAJhDYAACQQ2gAAkEBoAwBAAqENAAAJhDYAACQQ2gAAkEBoAwBAAqENAAAJhDYAACQQ2gAAkEBoAwBAAqENAAAJhDYAACQQ2gAAkEBoAwBAAqENAAAJhDYAACQQ2gAAkEBoAwBAAqENAAAJhDYAACQQ2gAAkEBoAwBAAqENAAAJhDYAACQQ2gAAkEBoAwBAAqENAAAJhDYAACQQ2gAAkEBoAwBAAqENAAAJhDYAACQQ2gAAkEBoAwBAAqENAAAJhDYAACQQ2gAAkEBoAwBAAqENAAAJhDYAACQQ2gAAkEBoAwBAAqENAAAJhDYAACQQ2gAAkEBoAwBAAqENAAAJhDYAACQQ2gAAkEBoAwBAAqENAAAJhDYAACQQ2gAAkEBoAwBAAqENAAAJhDYAACQQ2gAAkEBoAwBAAqENAAAJhDYAACQQ2gAAkEBoAwBAAqENAAAJhDYAACQQ2gAAkEBoAwBAAqENAAAJhDYAACQQ2gAAkEBoAwBAAqENAAAJhDYAACQQ2gAAkEBoAwBAAqENAAAJhDYAACQQ2gAAkEBoAwBAAqENAAAJhDYAACQQ2gAAkEBoAwBAAqENAAAJhDYAACQQ2gAAkEBoAwBAAqENAAAJhDYAACQQ2gAAkEBoAwBAAqENAAAJhDYAACQQ2gAAkEBoAwBAAqENAAAJhDYAACQQ2gAAkEBoAwBAAqENAAAJhDYAACQQ2gAAkEBoAwBAAqENAAAJhDYAACQQ2gAAkEBoAwBAAqENAAAJhDYAACQQ2gAAkEBoAwBAAqENAAAJhDYAACQQ2gAAkEBoAwBAAqENAAAJhDYAACQQ2gAAkEBoAwBAAqENAAAJhDYAACQQ2gAAkEBoAwBAAqENAAAJhDYAACQQ2gAAkEBoAwBAAqENAAAJhDYAACQQ2gAAkEBoAwBAAqENAAAJhDYAACQQ2gAAkEBoAwBAAqENAAAJhDYAACQQ2gAAkEBoAwBAAqENAAAJhDYAACQQ2gAAkEBoAwBAAqENAAAJhDYAACQQ2gAAkEBoAwBAAqENAAAJhDYAACQQ2gAAkEBoAwBAAqENAAAJhDYAACQQ2gAAkEBoAwBAAqENAAAJhDYAACQQ2gAAkEBoAwBAAqENAAAJhDYAACQQ2gAAkEBoAwBAAqENAAAJhDYAACQQ2gAAkEBoAwBAAqENAAAJhDYAACQQ2gAAkEBoAwBAAqENAAAJhDYAACQQ2gAAkEBoAwBAAqENAAAJhDYAACQQ2gAAkEBoAwBAAqENAAAJhDYAACQQ2gAAkEBoAwBAAqENAAAJhDYAACQQ2gAAkEBoAwBAAqENAAAJhDYAACQQ2gAAkEBoAwBAAqENAAAJhDYAACQQ2gAAkEBoAwBAAqENAAAJhDYAACQQ2gAAkEBoAwBAAqENAAAJhDYAACQQ2gAAkEBoAwBAAqENAAAJhDYAACQQ2gAAkEBoAwBAAqENAAAJhDYAACQQ2gAAkEBoAwBAAqENbLTNNttsvK3boe4P3scvzJ0f8zTatM+P5wVMH6ENbPSIRzyiPOxhD2uCIMayZcvKwx/+8LLttg/+p6Lez2x1Trbffvuy3XbbNdt9E8+BeG7U7cWKxww+j6bF4L+netzTdPww7eJf+8yDm8A0qyEQMTQzM1P+7//+rwnvn/3sZ8198bGf//znzXbc8gsR2A888EAzZzFPEVex31U1BOM2ngsx6n4cY43HxRxj/Zrxwq3Lc7NY9bhjzuLfTfyb+ulPf9rcB/Sf0AYaEdCPfOQjy3333dfEQQ2DGtZxG9Ed2zW8eFB9QbLTTjv1IiJrHIYa2vXFVYRyhGJ9fizUjjvu2MxNPI9C11+MLFTMV8xfzOn999/fHH8c92LmDuguoQ00Igje9KY3lX322afZjzOXoUZ3uOqqq8qnPvUpZ+QGxPzEcpF6pvclL3lJecUrXrFxzrqohmGN7AjDj33sY+X6669vtmMs5sx0fK3f/d3fLatXr25elMRcxdet0d1ncZwh5utrX/taOffcc8u999678X6g34Q20IgAipj67d/+7Wa7qkG0fv36ct5555UTTjihOevNLzzqUY8q69atK4ceemj54Ac/2PxkoMsROfi9RxTH2dfbb7+9HHnkkeXLX/5ys1/P4i9EfL1TTjmlHHvssU10x9esL076Lo435ituL7744vLa1762mbeFzh3Qbf0/nQAsSD1zWc/ERhzFiDNxEQmxDjn2F3oWs49iHiIwYx4iFGN/hx12aKIpzmK/+93vLjvvvHMzhzFvXR31777+/cff/YoVK8ppp53W/MQj5iCeB3H88fE6N4O3c9WvG4+NX7KtX7vvox5zbMecxb5lIzA9hDawKNP+I+/6QiPiOmI79g866KBy9tlnl912260Jzflis+v23nvvZulQxHaEY6jPhzjmiEhLIgB+QWgDLFBEZA3M+OW+2H/5y19eTjrppOZMdo3vPoqz0OGXf/mXy5lnnrkxtmMO4pjjtq8vMAA2ldAGWKD64/+IyviF0AMPPLB8+tOfbs5kh4jRWHfcx+CMdflxxjqWkey5557l7//+78uqVauaj8V8DN4C8CChDbBAsbY2zlzHmtv4pdE1a9Y08VnX3kZ8R2z2cQ1uvIiIy9PVFxGxZvuMM84o+++//8b7unylFYAMQhtgASIm44x2nNk95JBDyvve977yhCc8obm//qJojNiP4Izgrme+I1DjcXE7aSO+v7kj7o8XC7EUJs7Q17P0cZxxGy80YrnIypUry1lnnVWe/vSnN/v16hoLFZ9fX5jEn1H/7D6NmMO4jUv6xdzEsXpBAtMj/ovoZ31AE5HnnHNOOeKIIzZGY4g4iBiKs7bx8bhEW8TCtIl5iDl5ylOeUj73uc+VJz/5yU0cxn0xP/HxGHFf7MdtRNb3vve9Jkbj6iSLDdGtIb7XuWL9eVyGbtddd23+3iOsY8wVHws33XRTOeCAA8qdd97ZRGS9v4o5irP/Rx99dPM8q3MQ8xEfi8//yle+Ui666KJmf9LmaHPEMcZPAyK0v/vd75ZLLrmkeUERzw9gOsR/ZQ3DmPKxIYBmPv7xj8/cf//9MxvCZ2ZDCDQjxG3c/+EPf3hmQ0iNfHzfx4b4a+Zo1apVM+vWrWvmY0NENWNDUDe369evb+Yrtu+5556Z73znOzN77bXXzOMe97iZDbHVPD7mb5LGhrAdGvG97rfffjO33HJLc2wbwrA5rlHiOO+7776ZlStXzmy33XYj5y6+5vvf//5mzupzKtT9eL595CMfmVm+fPnI77HLI4495iX+7mN7++23HzlHhmH0c1g6ArAIG+KpOQscZ2bjNs5YVrG0Is7Oxrj55pvLq1/96rIhVsuPfvSj5kzthqhsHjNJI76nwVHvu/baa8sb3/jG8pOf/KQ9umHxeXH2u85B7MdxLlR8/obYbv7MuI3lNYPfWx9GfU7EvMSZ+tgGpofQBliECOwIphqlsaQibiOkYklAhFS8VXm8i+INN9zQLB+J2KoRGY+bpDFXfI8hPhbLOeIt5b///e/PekFRxefE/THi+OtcLFSs664vWCK067z2adS/93gexBzFdrxYA6aD0AZYoIikiMoIpYimGCFiMURo/vjHPy7HH398c0Y74irCOwI8HhujC+L7ju81IvHGG28sf/AHf9Acx9xjqPMQwVyPczHrq+NzB+OzzmcfxTHGvEZ8j3rRAvST0AZYpBqbo6Iy4vS2225rgqp+XtzW7S6I7zW+/xC3P/jBD8bGYcxDjE05xsE57NIcLVTX/u6BLUtoA2whNar6FlZCEWDTCG2AzTR4VnbUWe4u6+MLB4CtRWgDbKbBZSKh67Ed33/fXjAALAWhDbAANaTrGd56tY0YccWM+GXA+GW32J8b3l3Wl+MAWApCG2CBIjr/+7//u6xdu7Z5h79LL720/Mu//Eu56qqryhe/+MVy8cUXl6uvvnrjtbb7wJltgE0ntAEWId5G+3Wve1057LDDyqGHHtq8Kc0rX/nKcvDBB5ejjjqqvPWtby133HGHM8EACG2AhaqXvKuXuqvXgI7747J+cbtu3brmetIAILQBFiiWUcSykPrGI3VtdmzHqGex43MAQGgDLFCEdI3sCOy6fjn2423W40x3vEtkPePddfX44tgeaq12zM3mrOfenMdOknocfTkeYPMIbYBFirAO9Wx2iACPuIr7dtxxx+a+roq3VI9jidtly5aVP/uzP9t439yAjMCOY45lNHUpzWLFC5N4+/rQ5UCtbyMfx1DnIwYwveK/aH5jB2jOxJ5zzjnliCOOmBUIEQ01puLjxx57bG/O2G4pNQ4jtGJuYu66PEdxHBG+T3jCE8qFF15Y9thjj7LDDjsMRXA8J+JzYwnNvvvuW/71X/+12Y/7B8V8rFmzphx99NHN86x+nTpX8fj4c9797nc3L1i6LI6tvij5n//5n/Lv//7v/r3AFBPaQENob7qIy3omN7ZjzubGZpdEKO68887lYx/7WFm9enUT2fX5MKguoYnbZz7zmeXWW29t9uee1Z4vtONxsV2vPx6/UFo/1kVx3PXfS4zzzjuvnHjiiZ1/8QBsOqENNIT2pqvzFXO1fPnysvvuu3c6tB/1qEeVP//zP28iO54XYVQARyjHFVbWr19fVq1aVb7//e838zD32OO+UaEdAVrnLcTzLPa7Ks7Mx9hpp52afyMR2sccc4yr0MAUE9pAQ2hvupijOJO9YsWKcvLJJ5f999+/+QXCLosz2vGciEgctWwkxHPi7rvvLn/4h39YPvGJTzTPi/j8eL4Mmi+04/MituO+rkd2qMdS/32cf/755c1vfrMz2jDFuv1fNYCtKAIxYrCGYt2P9cwR2aeccko55JBDmjPCj370ozs7HvOYxzQvFOLFQ/xiZxxnRHUs7YiIjDPZsf2jH/2o/MVf/EUTlBHYm3LmNpaphLrkpstqZMdzIo6nyz/VALYMoQ2wCHVdcYiYChGmp59+ehPZcZWOGPE5XRgRhXNH3D9XPda77rqruY23on/Xu97V/JQj3qQnHrcpZ6XjMTGncdY3ll2Eud9jl0bEdph7Vh+YTkIbYIEiniKkIgzr5eh22WWX5kz2QQcd1AR2nNEcFWBdGqNEBMfH4mx9RPZ73/ve5kx2zEk9e1uXgCxGfXwdsR/z28VR5y5eNMRxxHNkvvkEpoPQBliEemY3wurxj398OeOMM5oz2TUS47ZLsb1QscQjji2Wh7zzne9szuDHL0HGGu36deK4FxPa9XHxmBqnXR7xYiPmIOYqnh/33HNPcz8wveK/cv4rADRnI/0y5Hg1TiM4H/vYxzbXfX7Vq161cb4isOovxC12CcVSmRuCNX7nisD+8Y9/XE466aTy4Q9/uAnJ+th4btTtOO65a5Pjvvl+GTK+Trj99tvLnXfeOfT9dEkcV/zbiOON58Fll13WLK+pS2KA6SO0gYbQHi/mIUbEdPzC4Jlnnlle+tKXNh+r8VjDMeYubutZ7jjzG79U2JV5i++/HksN6vje3/72t5dzzz23Od577723+dz42EOJrzdfaMd2RPxZZ51V/vRP/3Qo0rumHlPcxrFEZNcXE8D0EdpAQ2iPF/MQcxKXuvvQhz5UDj/88Oa+WIdbYzP2Q+zXERF50003Neu3Q/2cSVaPJ8R2hGIskfnUpz618coj9Tkw+LnzWUhox1nyWJLSt7O/C5kfoL+ENtAQ2uPFPMQZ6uc+97nliiuuaK6+EctHIkJjruLjsR23MT91PfNf/uVfNr84WD+vS+qZ2HobZ+VjTXbcxhntev9DWUxoxzZAX3Trv/oASyjCMOIyQjou6RcvPiIi5561jMiOK3P8yZ/8SfnABz7QfF48Js7WdmFE7MaIdcYx4nuPQI5f7ovra8dSmAjkGswAjCa0ARYowjJCM2I7tiOoI0xDPTsbtxHZZ599dvngBz+48czvQs/+TqoI73q8sQxm7osLAIYJbYAFiriMs7l1CUjEc/xyZNwfIRpnfuPjsVQk3jEx7quRHY+p25M+4njmjngREWe343Yxvwg5TnytQXP3AbpOaAMswuAa4zjDG9txGyEdZ3vjMnUXXHBBsx0hGuEa6m1X1e8/XkyELXk8MYciG+gjoQ2wmSKo4+ojsawkgjvWZAOA0AbYTPVsbF1KEUssAEBoA2ymGth1CUTs1/sAmF5CG2AzRVTXwA71lyV5aHXuBucPoC/83wCYejX0BsdizP38+ouCg+EoIofFnMRcxQuTGH2co7nPqzqA6SC0gUWrYdSXkWVuUI36s7s8MoJx1J/T5QFMN/8VABYtzkL2aWwNEaWj/uwuj4wz0KP+nC4PYLoJbWBRIhjjutF9GnFMdWyu+nXqGc3Brz3qz+7yGDy2zWWOgD4S2sCC1FiYG499GDWK67FtrsGvOV909WEMzlmMzVG/Xv1afRl1jgbnCpge8S/eb+gAzTsennPOOeWII47YGAVh8BfWbrnllvJv//ZvGz/WF3Hd63izmXvuuad84QtfKGeddVbzzo6DP/qv0fTc5z63XH755c3n1/tjjuoyirvuuqt8+ctfnpplA/XNeY477rjyn//5n807R8499pi3NWvWlKOPPnrWO2uG+vjvfe975cYbb2w+3icxH/EiK962/lvf+lZ5z3ve07xNv2UlMB2ENtCYL7RDjYJ6G6HUpzNzcSwRfHHMZ5xxRjnxxBOb/cE1yPE540I73Hfffc07RPZpbsaJFyhxvPECZZ999mleiIWFhnbMW31zn/g6MefxsT7NX8xFHNd2221X/umf/qm8/vWvb6J78LkF9JelI8BYEQQRSoNLH2K/bvdhhAjAepz1+BZr2bJlzePjLGZ8jblj7p/b9RHxGLf17efj2Bcjnlvx2MG56ds8xfHEPMVtfQES28B08K8dGCtiIQIhzjzWCIrbPo16NjsCOYI7wmhTxHKTOFtZz9rOHXP/3K6POKZ4btSz0RHac89mjzM4NzH3Ed59m6c4pvriK44tnlvOZsP0ENrAQ4pQGDxbGaHQpxHHFrcRRhGMP/3pT5v9h1I/p97GWd0ddthh3sfG/X0aEY51u75YWYyI8hjxuBrsYfDP6Pqoz6n6giJesMb9wHQQ2kAjIqAGQYRAhE9dPxtqKNSYqvtdH6GecYxji9vBFxWD4vNjTuK2nqGMuRr8WnEbX2dUTNXP68sIMVfxXImz+LFGfT4xH/H8inkLgz8hCfH4wbnswwiDxzQY3MB0ENpAI/7nH1EQ0VRDc/AM41xxXx9GVeOnRvd8MRRxOHgWNuIpjPqag/f1cVT1hUU8X8bNW3ysztt8L2bm/hldHqEec4j7Yo7i+IHpILSBRkRAjcy4/FjcxhnKiIK+jzjOON4azaGG0qCIpkc+8pHN569bt65Zkx1Gfc1pGLHEJm7j7HTMX2yPEnMZa9dj/uplE+Mx9ev0ecSx33333c1tBHfM2XwvRoD+iX/tw/83AaZORMB+++1XnvjEJzbRFCEZ4bl8+fL2M/orwjl+SS3WV998883luuuua8IoQqmKOIrlDb/0S79UVq9e3YRivDCJOYr7p1GN67jaymc/+9lmTuqLj0Exd3vvvXf51V/91Y0/JYnn26gXM31TX7zF+v3bb7+9XHPNNbNe0AH9JrSBRoRPBFHcRjxFPEZ4xjWS+66GcoRfxGLsR0TGqGJu6pnI+HjMUURjfP60iudKVZ8/ceZ6rrg/Yry+OBmc176L443jr2e3YztCe/BFHNBfQhuYJUJgGs40zhXHHWoMjZuD+vFpnatBg3MRHmo+pnXOFjo/QL8IbQAASOCXIQEAIIHQBgCABEIbAAASCG0AAEggtAEAIIGrjgALMnhZtnqpsvm4hNnmq/O9uZeFm+/vamv/HQ0+f/pk8Lg29+8K6B+hDTwkAbH11YCrcx8WM/+Djxs092uGrfH32sfn0Ny/m/pul3G/N6QBQvxXwv85AXokQq8G7dztUGOwqh9n88W81jk3r4DQBuipwcgOc/fZ8uocx20w3zDdhDYAbCFezACDhDYAACRweT8AAEggtIFZ6tpSAGDzCG0AAEhgjTYAACRwRhsAABI4ow098s53vrMceOCB7d5kO+GEE8p1113X7i3O4YcfXn7v936v3Zvtk5/8ZPnbv/3bdq9bXvnKV5Z3vOMd7d5sF154YTn11FPbvV84/fTTy1577dXu9dvf/M3flLVr17Z789t3333LYYcdVp785CeXXXbZpb23G+67775y6623luuvv76cccYZ7b1Al0VoG4bRg3HLLbfMdMUf//EfjzyGhYzf//3fb7/KsL/6q78a+ZgujA0vHtqjGPa+971v5GO+9rWvtZ/Rf0ceeeTIOahj5cqVM1deeWX72d33X//1XzNHHXXUyGM1DKMbw9IR6Ik99tijOYPXFatXr263Fu9hD3tYuzXsgQceaLe65xGPeES7NexnP/tZuzXbwx/+8Har/+abg3DAAQeUr371q5v1vJo0K1asKB/96EfLSSed1N4DdI3Qhp542cte1m51wwtf+MJ2a/HGxWWXQ3vccQnt+f9u995773LppZeW5cuXt/f0SywJO/HEE9s9oEuENvRE10J72bJlZdWqVe3e4vQ1tLfbbrt2a5jQnv/v9tOf/nS71V8nn3xyedrTntbuAV0htKEnXvziF7db3bH//vu3W4vT19AetyRGaI/+uz3mmGPKypUr271+e9e73tVuAV0htKEHYhnGTjvt1O51x6YuHxkXl+PW8U66cWu077///nZrNqF9TLvVf4ceemjZeeed2z2gC1zeD3rgr//6r8sf/dEftXuzff3rXy8XX3xxu7f17brrruVNb3pTuzfb3XffvUnrak855ZR5L4N33HHHldNOO63d65Zxf49xvO9973vbvV/4j//4j2aOp8GLXvSicsUVV7R7pVlK8e1vf7vdmw6HHHJIueiii9o9oAuGLkViGEa3xje+8Y32gmDD3vjGN458zNYaO++8c/udjPbsZz975OPGjTVr1rSPHnb00UePfEwXxsknn9wexbC3ve1tIx+ztcbBBx/cfifD/vEf/3HkY7LHgQce2H4Ho5166qkzK1asGPnYSRzxb+X4449vv/vR4uOjHmsYxmQOS0eg4+ISYL/+67/e7g275JJL2q2lcc8995QvfelL7d6wTVmnvSmXweuCSV4SM4nr4sddzvLKK69s3hTpjjvuaO+ZfPFvZcOLyOaSfvPZbbfd2i2gC4Q2dNxLX/rSdmvYN7/5zfLDH/6w3Vs6gz/un2tTQntc9P385z9vt7pnU646srVM4pyP+72Ea665pt3qnnhXyPlsu63/bUOX+BcLHffyl7+83Rq21Gezq3GhvSlXS5nEs6tbwiSf0Z7EnyKMm694K/OumpmJnziP1uXnN0wjoQ0dN+6M9uc+97l2a2lddtll7dawuIpCvOHIYvR16cgkH9ckvriZxhdcQhu6RWhDhz3nOc8pj3vc49q92eKKHl/4whfavaU37ntZ7GX++voW7JtyHe2tRWhvPZP8PAAWR2hDh41bNjLuLPJSuPzyy9utYYtdpz3uzG+XA2vccc13He2tRWhvPeOeB13+HQSYRkIbOqwLy0aqceu0V69e3W4tTF8Da5KPS2hvPX39iQ1MI6ENHRVXXBi35OKzn/1suzUZrr766nZrWCx/ecYzntHuPbS+BlZXrzqyVHM+jT/ZsHQEukVoQ0cdcMAB7dawG2+8sdx2223t3uRYu3ZtuzVsMeu0p/FMptAe1tfnQV+PC6aR0IaOetnLXtZuDZuUy/rNNW6d9pYK7S6f8Rt3Rtsa7WFCG5h0Qhs66rd+67farWGTtj67Ghfai1mnPY2BNclntJfqe5vk+docfT0umEZCGzroqU99atl9993bvdnWr19fPv/5z7d7k+Xaa68td911V7s326/8yq80x7UQ40Kky1dlmOS1uZO4HrqvV+cY9/x2Rhu6RWhDB427rN+4q3tMgnHX017oZf76+sti4wJrqZeOjFs/vlRR29frTff1hSRMI6ENHTRuffakLhupxr0QWOg67b6e8ZvEs8bVJM55X58HfT0umEbbbBgzD24CXbFu3bqy4447tnuznXnmmeUHP/hBuzd5nvSkJ5U3vOEN7d5scaWU3Xbbrd2b33XXXVee/exnt3uz7bXXXs1VV7po3HHtscce5ZZbbmn3tr5TTjmlvOMd72j3Znv7299eTj311HZv67ngggvKYYcd1u7Ndsghh5SLLrqo3euWc889t7z+9a9v92Z7zWteU84///x2D+iCCG3DMDoyXvSiF8302e677z7yuAfHt771rfazh+25554jH9OFccMNN7RHMWzDC5CRj9laY82aNe13Muy4444b+Zjs8c///M/tdzDswAMPHPmYLozzzjuvPYphhx9++MjHGIYxmcPSEeiYceuz+2Ah67QtHdn6/DLk1jPJzwNgcYQ2dMy4t13vgxe84AXt1vymcW3uJP8y5FL94mFffxly223n/19zl48LppHQhg55/OMfX571rGe1e/20kDPafT3jN+64ljqwxr0IWKqzx9P4kw1XHYFuEdrQIX0/mx2e8pSnlCc+8Ynt3mjjAquvl3Vb6uOaxBcBXnABk05ow4TZZpu4GNBofV+fXT3UWe1JPLu6JYwLrHvvvbfdWhqTePa4r2e0xy2J6fJxwTQS2jBhZmbiF5VHG/e2633yUNfTnsYz2ktNaG89fT0umEZCGzpin332KY9+9KPbvWF77rlncza8K+Ntb3tb+50P25zQXrFiRbvVLcuWLRv797vUJjH+xv0E4DGPeUy71T3jlk5ZOgLdIrShI8a9G2S8kcl3vvOddq8bxr0V+9Oe9rTmFz/n85Of/KTdGjYu4CfZ8ccf324Nu+OOO9qtpTOJoX3XXXe1W8OOPfbYdqtbYnnY05/+9HZv2A9/+MN2C+gC7wwJHXHVVVfNe+m7008/vbz1rW9t97rjzjvvLLvssku7N9vv/M7vlL/7u79r92a7+uqry/Of//x2b9g111xTLrvssk6s146z+8973vPKAQcc0N4z7Ctf+UrZd999272lcfHFF5eDDjqo3ZstljRdcskl7d7WM+4dFMMNN9xQPvOZzyz5pREXau+99y6vetWr2r3R4vkCdMusd7AxDGPyxvLlyx98W7h5vOIVrxj5uEkfF1xwQXsEw0477bSRj4nx/ve/v/2s6XD22WePnIetOdauXdt+N8M2vEgY+ZjsccIJJ7TfwXTY8GJ75DwYhjG5w9IR6IAXv/jF7dZoV1xxRbvVLeO+79/8zd9st4Z94hOfaLemw8c//vF2a+lM4tKRaXsefOhDH2q3gK4Q2tAB49ZnX3755WXdunXtXrfE9z6fX/u1X5t3WUkspfjmN7/Z7vXbzTffPBEvpCYxtGPt+j/8wz+0e/126623lk9+8pPtHtAVQhs6YL61sWEp1sZuKTfddFP53//933Zv2OrVq9utYePW5vZJrFWfBJMY2iF++XXcL0X2xatf/ep2C+gSoQ0TbuXKlWXXXXdt94atXbu23eqmz3/+8+3WsHFvXHP99deXE088sd3rpyOPPLJ84xvfaPeW1rjQXspfOo2rcBx11FHtXj/F8zx+igN0j9CGCTdu2UhERteXUIxbPjLujHZ4z3veU97ylre0e/1x9913N2+3P0lLBcZds3qpr+px4YUXNpfEu/baa9t7+uM1r3lN8zwHuklow4QbF9pdP5sdxl1P+1nPetZDvvHImWeeWfbaa69ywQUXtPd0W1yqMaLx0ksvbe+ZDJO6dKT69re/XVatWlUOPvjgcuWVV7b3dtdHPvKRsvvuu5fzzz+/vQfoItfRhgkX10+Odw0cJd6k5rbbbmv3umvcEpGvf/3rzRnehXrGM57RvDtkl643HEsv4qcT3/3ud9t7Jk9E7E477dTuzfbVr361rF+/vt2bHPvtt1/Zfvvt273J14XnAbA4QhsAABJYOgIAAAmENgAAJBDaAACQQGgDAEACoQ0AAAmENgAAJBDaAACQQGgDAEACoQ0AAAmENgAAJBDaAACQQGgDAEACoQ0AAAmENgAAJBDaAACQQGgDAEACoQ0AAAmENgAAJBDaAACQQGgDAEACoQ0AAAmENgAAJBDaAACQQGgDAEACoQ0AAAmENgAAJBDaAACQQGgDAEACoQ0AAAmENgAAJBDaAACQQGgDAEACoQ0AAAmENgAAJBDaAACQQGgDAEACoQ0AAAmENgAAJBDaAACQQGgDAEACoQ0AAAmENgAAJBDaAACQQGgDAEACoQ0AAAmENgAAJBDaAACQQGgDAEACoQ0AAAmENgAAJBDaAACQQGgDAEACoQ0AAAmENgAAJBDaAACQQGgDAEACoQ0AAAmENgAAJBDaAACQQGgDAEACoQ0AAAmENgAAJBDaAACQQGgDAEACoQ0AAAmENgAAJBDaAACQQGgDAEACoQ0AAAmENgAAJBDaAACQQGgDAEACoQ0AAAmENgAAJBDaAACQQGgDAEACoQ0AAAmENgAAJBDaAACQQGgDAEACoQ0AAAmENgAAJBDaAACQQGgDAEACoQ0AAAmENgAAJBDaAACQQGgDAEACoQ0AAAmENgAAJBDaAACQQGgDAEACoQ0AAAmENgAAJBDaAACQQGgDAEACoQ0AAAmENgAAJBDaAACQQGgDAEACoQ0AAAmENgAAJBDaAACQQGgDAEACoQ0AAAmENgAAJBDaAACQQGgDAEACoQ0AAAmENgAAJBDaAACQQGgDAEACoQ0AAAmENgAAJBDaAACQQGgDAEACoQ0AAAmENgAAJBDaAACQQGgDAEACoQ0AAAmENgAAJBDaAACQQGgDAEACoQ0AAAmENgAAJBDaAACQQGgDAEACoQ0AAAmENgAAJBDaAACQQGgDAEACoQ0AAAmENgAAJBDaAACQQGgDAEACoQ0AAAmENgAAJBDaAACQQGgDAEACoQ0AAAmENgAAJBDaAACQQGgDAEACoQ0AAAmENgAAJBDaAACQQGgDAEACoQ0AAAmENgAAJBDaAACQQGgDAEACoQ0AAAmENgAAJBDaAACQQGgDAEACoQ0AAAmENgAAJBDaAACQQGgDAEACoQ0AAAmENgAAJBDaAACQQGgDAEACoQ0AAAmENgAAJBDaAACQQGgDAEACoQ0AAAmENgAAJBDaAACQQGgDAEACoQ0AAAmENgAAJBDaAACQQGgDAEACoQ0AAAmENgAAJBDaAACQQGgDAEACoQ0AAAmENgAAJBDaAACQQGgDAEACoQ0AAAmENgAAJBDaAACQQGgDAEACoQ0AAAmENgAAJBDaAACQQGgDAEACoQ0AAAmENgAAJBDaAACQQGgDAEACoQ0AAAmENgAAJBDaAACQQGgDAEACoQ0AAAmENgAAJBDaAACQQGgDAEACoQ0AAAmENgAAJBDaAACQQGgDAEACoQ0AAAmENgAAJBDaAACQQGgDAEACoQ0AAAmENgAAJBDaAACQQGgDAEACoQ0AAAmENgAAJBDaAACQQGgDAEACoQ0AAAmENgAAJBDaAACQQGgDAEACoQ0AAAmENgAAJBDaAACQQGgDAEACoQ0AAAmENgAAJBDaAACQQGgDAEACoQ0AAAmENgAAJBDaAACQQGgDAEACoQ0AAAmENgAAJBDaAACQQGgDAEACoQ0AAAmENgAAJBDaAACQQGgDAEACoQ0AAAmENgAAJBDaAACQQGgDAEACoQ0AAAmENgAAJBDaAACQQGgDAEACoQ0AAAmENgAAJBDaAACQQGgDAEACoQ0AAAmENgAAJBDaAACQQGgDAEACoQ0AAAmENgAAJBDaAACQQGgDAEACoQ0AAAmENgAAJBDaAACQQGgDAEACoQ0AAAmENgAAJBDaAACQQGgDAEACoQ0AAAmENgAAJBDaAACQQGgDAEACoQ0AAAmENgAAJBDaAACQQGgDAEACoQ0AAAmENgAAJBDaAACQQGgDAEACoQ0AAAmENgAAJBDaAACQQGgDAEACoQ0AAAmENgAAJBDaAACQQGgDAEACoQ0AAAm2ed4LXjjzwAMPlJmZmfYuAABg85Ty/zJIjcd+uEO2AAAAAElFTkSuQmCC;" parent="1" vertex="1">
          <mxGeometry x="236.21999999999997" y="1655" width="164.78" height="165" as="geometry" />
        </mxCell>
        <mxCell id="EHiVDNENzDMnCt2iVOXm-38" value="Записи на ТО" style="rounded=1;whiteSpace=wrap;html=1;" parent="1" vertex="1">
          <mxGeometry x="268.11" y="1830" width="101" height="30" as="geometry" />
        </mxCell>
        <mxCell id="8L9NO-aYm_PTyzWSZGwI-1" value="" style="whiteSpace=wrap;html=1;aspect=fixed;" parent="1" vertex="1">
          <mxGeometry x="83.61" y="2120" width="470" height="470" as="geometry" />
        </mxCell>
        <mxCell id="8L9NO-aYm_PTyzWSZGwI-2" value="" style="shape=image;verticalLabelPosition=bottom;labelBackgroundColor=default;verticalAlign=top;aspect=fixed;imageAspect=0;image=data:image/png,iVBORw0KGgoAAAANSUhEUgAAAtoAAALbCAYAAADEsieWAAAAAXNSR0IArs4c6QAAAARnQU1BAACxjwv8YQUAAAAJcEhZcwAADsMAAA7DAcdvqGQAACvASURBVHhe7d0LkGRVecDxAyosD1ejuNEIEUVcDVIaizWg5UoUHwGFIIUkomj5qAIiFigx75SpVJJCUFYF1MhLRTGRPECibCEgSIkPFKIUxEKJEjQETKLALoiYyX6Xe9ae6Z5mZne/nb63f7+qU31vz/Ts3LO98O87Z25v85xVvzFTZmYKAACw5WzzG/s9/8HM1toAALDFbLNhSGwAANjCtm1vAQCALUhoAwBAAqENAAAJhDYAACQQ2gAAkEBoAwBAAqENAAAJhDYAACQQ2gAAkEBoAwBAAqENAAAJhDYAACQQ2gAAkEBoAwBAAqENAAAJhDYAACQQ2gAAkEBoAwBAAqENAAAJhDYAACQQ2gAAkEBoAwBAAqENAAAJhDYAACQQ2gAAkEBoAwBAAqENAAAJhDYAACQQ2gAAkEBoAwBAAqENAAAJhDYAACQQ2gAAkEBoAwBAAqENAAAJhDYAACQQ2gAAkEBoAwBAAqENAAAJhDYAACQQ2gAAkEBoAwBAAqENAAAJhDYAACQQ2gAAkEBoAwBAAqENAAAJhDYAACQQ2gAAkEBoAwBAAqENAAAJhDYAACQQ2gAAkEBoAwBAAqENAAAJhDYAACQQ2gAAkEBoAwBAAqENAAAJhDYAACQQ2gAAkEBoAwBAAqENAAAJhDYAACQQ2gAAkEBoAwBAAqENAAAJhDYAACQQ2gAAkEBoAwBAAqENAAAJhDYAACQQ2gAAkEBoAwBAAqENAAAJhDYAACQQ2gAAkEBoAwBAAqENAAAJhDYAACQQ2gAAkEBoAwBAAqENAAAJhDYAACQQ2gAAkEBoAwBAAqENAAAJhDYAACQQ2gAAkEBoAwBAAqENAAAJhDYAACQQ2gAAkEBoAwBAAqENAAAJhDYAACQQ2gAAkEBoAwBAAqENAAAJhDYAACQQ2gAAkEBoAwBAAqENAAAJhDYAACQQ2gAAkEBoAwBAAqENAAAJhDYAACQQ2gAAkEBoAwBAAqENAAAJhDYAACQQ2gAAkEBoAwBAAqENAAAJhDYAACQQ2gAAkEBoAwBAAqENAAAJhDYAACQQ2gAAkEBoAwBAAqENAAAJhDYAACQQ2gAAkEBoAwBAAqENAAAJhDYAACQQ2gAAkEBoAwBAAqENAAAJhDYAACQQ2gAAkEBoAwBAAqENAAAJhDYAACQQ2gAAkEBoAwBAAqENAAAJhDYAACQQ2gAAkEBoAwBAAqENAAAJhDYAACQQ2gAAkEBoAwBAAqENAAAJhDYAACQQ2gAAkEBoAwBAAqENAAAJhDYAACQQ2gAAkEBoAwBAAqENAAAJhDYAACQQ2gAAkEBoAwBAAqENAAAJhDYAACQQ2gAAkEBoAwBAAqENAAAJhDYAACQQ2gAAkEBoAwBAAqENAAAJhDYAACQQ2gAAkEBoAwBAAqENAAAJhDYAACQQ2gAAkEBoAwBAAqENAAAJhDYAACQQ2gAAkEBoAwBAAqENAAAJhDYAACQQ2gAAkEBoAwBAAqENAAAJhDYAACQQ2gAAkEBoAwBAAqENAAAJhDYAACQQ2gAAkEBoAwBAAqENAAAJhDYAACQQ2gAAkEBoAwBAAqENAAAJhDYAACQQ2gAAkEBoAwBAAqENAAAJhDYAACQQ2gAAkEBoAwBAAqENAAAJhDYAACQQ2gAAkEBoAwBAAqENAAAJhDYAACQQ2gAAkEBoAwBAAqENAAAJhDYAACQQ2gAAkEBoAwBAAqENAAAJhDYAACQQ2gAAkEBoAwBAAqENAAAJhDYAACQQ2gAAkEBoAwBAAqENAAAJhDYAACQQ2gAAkEBoAwBAAqENAAAJhDYAACQQ2gAAkEBoAwBAAqENAAAJhDYAACQQ2gAAkEBoAwBAAqENAAAJhDYAACQQ2gAAkEBoAwBAAqENAAAJhDYAACQQ2gAAkEBoAwBAAqENAAAJhDYAACQQ2gAAkEBoAwBAAqENAAAJhDYAACQQ2gAAkEBoAwBAAqENAAAJhDYAACQQ2gAAkEBoAwBAAqENAAAJhDYAACQQ2gAAkEBoAwBAAqENAAAJhDYAACQQ2gAAkEBoAwBAAqENAAAJhDYAACQQ2gAAkEBoAwBAAqENAAAJhDYAACQQ2gAAkEBoAwBAAqENAAAJhDYAACQQ2gAAkEBoAwBAAqENAAAJhDYAACQQ2gAAkEBoAwBAAqENAAAJhDYAACQQ2gAAkEBoAwBAAqENAAAJhDYAACQQ2gAAkEBoAwBAAqENAAAJhDYAACQQ2gAAkEBoAwBAAqENAAAJhDYAACQQ2gAAkEBoAwBAAqENAAAJhDYAACQQ2gAAkEBoAwBAAqENAAAJhDYAACQQ2gAAkEBoAwBAAqENAAAJhDYAACQQ2gAAkEBoAwBAAqENAAAJhDYAACQQ2gAAkEBoAwBAAqENbLTNNttsvK3boe4P3scvzJ0f8zTatM+P5wVMH6ENbPSIRzyiPOxhD2uCIMayZcvKwx/+8LLttg/+p6Lez2x1Trbffvuy3XbbNdt9E8+BeG7U7cWKxww+j6bF4L+netzTdPww7eJf+8yDm8A0qyEQMTQzM1P+7//+rwnvn/3sZ8198bGf//znzXbc8gsR2A888EAzZzFPEVex31U1BOM2ngsx6n4cY43HxRxj/Zrxwq3Lc7NY9bhjzuLfTfyb+ulPf9rcB/Sf0AYaEdCPfOQjy3333dfEQQ2DGtZxG9Ed2zW8eFB9QbLTTjv1IiJrHIYa2vXFVYRyhGJ9fizUjjvu2MxNPI9C11+MLFTMV8xfzOn999/fHH8c92LmDuguoQ00Igje9KY3lX322afZjzOXoUZ3uOqqq8qnPvUpZ+QGxPzEcpF6pvclL3lJecUrXrFxzrqohmGN7AjDj33sY+X6669vtmMs5sx0fK3f/d3fLatXr25elMRcxdet0d1ncZwh5utrX/taOffcc8u999678X6g34Q20IgAipj67d/+7Wa7qkG0fv36ct5555UTTjihOevNLzzqUY8q69atK4ceemj54Ac/2PxkoMsROfi9RxTH2dfbb7+9HHnkkeXLX/5ys1/P4i9EfL1TTjmlHHvssU10x9esL076Lo435ituL7744vLa1762mbeFzh3Qbf0/nQAsSD1zWc/ERhzFiDNxEQmxDjn2F3oWs49iHiIwYx4iFGN/hx12aKIpzmK/+93vLjvvvHMzhzFvXR31777+/cff/YoVK8ppp53W/MQj5iCeB3H88fE6N4O3c9WvG4+NX7KtX7vvox5zbMecxb5lIzA9hDawKNP+I+/6QiPiOmI79g866KBy9tlnl912260Jzflis+v23nvvZulQxHaEY6jPhzjmiEhLIgB+QWgDLFBEZA3M+OW+2H/5y19eTjrppOZMdo3vPoqz0OGXf/mXy5lnnrkxtmMO4pjjtq8vMAA2ldAGWKD64/+IyviF0AMPPLB8+tOfbs5kh4jRWHfcx+CMdflxxjqWkey5557l7//+78uqVauaj8V8DN4C8CChDbBAsbY2zlzHmtv4pdE1a9Y08VnX3kZ8R2z2cQ1uvIiIy9PVFxGxZvuMM84o+++//8b7unylFYAMQhtgASIm44x2nNk95JBDyvve977yhCc8obm//qJojNiP4Izgrme+I1DjcXE7aSO+v7kj7o8XC7EUJs7Q17P0cZxxGy80YrnIypUry1lnnVWe/vSnN/v16hoLFZ9fX5jEn1H/7D6NmMO4jUv6xdzEsXpBAtMj/ovoZ31AE5HnnHNOOeKIIzZGY4g4iBiKs7bx8bhEW8TCtIl5iDl5ylOeUj73uc+VJz/5yU0cxn0xP/HxGHFf7MdtRNb3vve9Jkbj6iSLDdGtIb7XuWL9eVyGbtddd23+3iOsY8wVHws33XRTOeCAA8qdd97ZRGS9v4o5irP/Rx99dPM8q3MQ8xEfi8//yle+Ui666KJmf9LmaHPEMcZPAyK0v/vd75ZLLrmkeUERzw9gOsR/ZQ3DmPKxIYBmPv7xj8/cf//9MxvCZ2ZDCDQjxG3c/+EPf3hmQ0iNfHzfx4b4a+Zo1apVM+vWrWvmY0NENWNDUDe369evb+Yrtu+5556Z73znOzN77bXXzOMe97iZDbHVPD7mb5LGhrAdGvG97rfffjO33HJLc2wbwrA5rlHiOO+7776ZlStXzmy33XYj5y6+5vvf//5mzupzKtT9eL595CMfmVm+fPnI77HLI4495iX+7mN7++23HzlHhmH0c1g6ArAIG+KpOQscZ2bjNs5YVrG0Is7Oxrj55pvLq1/96rIhVsuPfvSj5kzthqhsHjNJI76nwVHvu/baa8sb3/jG8pOf/KQ9umHxeXH2u85B7MdxLlR8/obYbv7MuI3lNYPfWx9GfU7EvMSZ+tgGpofQBliECOwIphqlsaQibiOkYklAhFS8VXm8i+INN9zQLB+J2KoRGY+bpDFXfI8hPhbLOeIt5b///e/PekFRxefE/THi+OtcLFSs664vWCK067z2adS/93gexBzFdrxYA6aD0AZYoIikiMoIpYimGCFiMURo/vjHPy7HH398c0Y74irCOwI8HhujC+L7ju81IvHGG28sf/AHf9Acx9xjqPMQwVyPczHrq+NzB+OzzmcfxTHGvEZ8j3rRAvST0AZYpBqbo6Iy4vS2225rgqp+XtzW7S6I7zW+/xC3P/jBD8bGYcxDjE05xsE57NIcLVTX/u6BLUtoA2whNar6FlZCEWDTCG2AzTR4VnbUWe4u6+MLB4CtRWgDbKbBZSKh67Ed33/fXjAALAWhDbAANaTrGd56tY0YccWM+GXA+GW32J8b3l3Wl+MAWApCG2CBIjr/+7//u6xdu7Z5h79LL720/Mu//Eu56qqryhe/+MVy8cUXl6uvvnrjtbb7wJltgE0ntAEWId5G+3Wve1057LDDyqGHHtq8Kc0rX/nKcvDBB5ejjjqqvPWtby133HGHM8EACG2AhaqXvKuXuqvXgI7747J+cbtu3brmetIAILQBFiiWUcSykPrGI3VtdmzHqGex43MAQGgDLFCEdI3sCOy6fjn2423W40x3vEtkPePddfX44tgeaq12zM3mrOfenMdOknocfTkeYPMIbYBFirAO9Wx2iACPuIr7dtxxx+a+roq3VI9jidtly5aVP/uzP9t439yAjMCOY45lNHUpzWLFC5N4+/rQ5UCtbyMfx1DnIwYwveK/aH5jB2jOxJ5zzjnliCOOmBUIEQ01puLjxx57bG/O2G4pNQ4jtGJuYu66PEdxHBG+T3jCE8qFF15Y9thjj7LDDjsMRXA8J+JzYwnNvvvuW/71X/+12Y/7B8V8rFmzphx99NHN86x+nTpX8fj4c9797nc3L1i6LI6tvij5n//5n/Lv//7v/r3AFBPaQENob7qIy3omN7ZjzubGZpdEKO68887lYx/7WFm9enUT2fX5MKguoYnbZz7zmeXWW29t9uee1Z4vtONxsV2vPx6/UFo/1kVx3PXfS4zzzjuvnHjiiZ1/8QBsOqENNIT2pqvzFXO1fPnysvvuu3c6tB/1qEeVP//zP28iO54XYVQARyjHFVbWr19fVq1aVb7//e838zD32OO+UaEdAVrnLcTzLPa7Ks7Mx9hpp52afyMR2sccc4yr0MAUE9pAQ2hvupijOJO9YsWKcvLJJ5f999+/+QXCLosz2vGciEgctWwkxHPi7rvvLn/4h39YPvGJTzTPi/j8eL4Mmi+04/MituO+rkd2qMdS/32cf/755c1vfrMz2jDFuv1fNYCtKAIxYrCGYt2P9cwR2aeccko55JBDmjPCj370ozs7HvOYxzQvFOLFQ/xiZxxnRHUs7YiIjDPZsf2jH/2o/MVf/EUTlBHYm3LmNpaphLrkpstqZMdzIo6nyz/VALYMoQ2wCHVdcYiYChGmp59+ehPZcZWOGPE5XRgRhXNH3D9XPda77rqruY23on/Xu97V/JQj3qQnHrcpZ6XjMTGncdY3ll2Eud9jl0bEdph7Vh+YTkIbYIEiniKkIgzr5eh22WWX5kz2QQcd1AR2nNEcFWBdGqNEBMfH4mx9RPZ73/ve5kx2zEk9e1uXgCxGfXwdsR/z28VR5y5eNMRxxHNkvvkEpoPQBliEemY3wurxj398OeOMM5oz2TUS47ZLsb1QscQjji2Wh7zzne9szuDHL0HGGu36deK4FxPa9XHxmBqnXR7xYiPmIOYqnh/33HNPcz8wveK/cv4rADRnI/0y5Hg1TiM4H/vYxzbXfX7Vq161cb4isOovxC12CcVSmRuCNX7nisD+8Y9/XE466aTy4Q9/uAnJ+th4btTtOO65a5Pjvvl+GTK+Trj99tvLnXfeOfT9dEkcV/zbiOON58Fll13WLK+pS2KA6SO0gYbQHi/mIUbEdPzC4Jlnnlle+tKXNh+r8VjDMeYubutZ7jjzG79U2JV5i++/HksN6vje3/72t5dzzz23Od577723+dz42EOJrzdfaMd2RPxZZ51V/vRP/3Qo0rumHlPcxrFEZNcXE8D0EdpAQ2iPF/MQcxKXuvvQhz5UDj/88Oa+WIdbYzP2Q+zXERF50003Neu3Q/2cSVaPJ8R2hGIskfnUpz618coj9Tkw+LnzWUhox1nyWJLSt7O/C5kfoL+ENtAQ2uPFPMQZ6uc+97nliiuuaK6+EctHIkJjruLjsR23MT91PfNf/uVfNr84WD+vS+qZ2HobZ+VjTXbcxhntev9DWUxoxzZAX3Trv/oASyjCMOIyQjou6RcvPiIi5561jMiOK3P8yZ/8SfnABz7QfF48Js7WdmFE7MaIdcYx4nuPQI5f7ovra8dSmAjkGswAjCa0ARYowjJCM2I7tiOoI0xDPTsbtxHZZ599dvngBz+48czvQs/+TqoI73q8sQxm7osLAIYJbYAFiriMs7l1CUjEc/xyZNwfIRpnfuPjsVQk3jEx7quRHY+p25M+4njmjngREWe343Yxvwg5TnytQXP3AbpOaAMswuAa4zjDG9txGyEdZ3vjMnUXXHBBsx0hGuEa6m1X1e8/XkyELXk8MYciG+gjoQ2wmSKo4+ojsawkgjvWZAOA0AbYTPVsbF1KEUssAEBoA2ymGth1CUTs1/sAmF5CG2AzRVTXwA71lyV5aHXuBucPoC/83wCYejX0BsdizP38+ouCg+EoIofFnMRcxQuTGH2co7nPqzqA6SC0gUWrYdSXkWVuUI36s7s8MoJx1J/T5QFMN/8VABYtzkL2aWwNEaWj/uwuj4wz0KP+nC4PYLoJbWBRIhjjutF9GnFMdWyu+nXqGc3Brz3qz+7yGDy2zWWOgD4S2sCC1FiYG499GDWK67FtrsGvOV909WEMzlmMzVG/Xv1afRl1jgbnCpge8S/eb+gAzTsennPOOeWII47YGAVh8BfWbrnllvJv//ZvGz/WF3Hd63izmXvuuad84QtfKGeddVbzzo6DP/qv0fTc5z63XH755c3n1/tjjuoyirvuuqt8+ctfnpplA/XNeY477rjyn//5n807R8499pi3NWvWlKOPPnrWO2uG+vjvfe975cYbb2w+3icxH/EiK962/lvf+lZ5z3ve07xNv2UlMB2ENtCYL7RDjYJ6G6HUpzNzcSwRfHHMZ5xxRjnxxBOb/cE1yPE540I73Hfffc07RPZpbsaJFyhxvPECZZ999mleiIWFhnbMW31zn/g6MefxsT7NX8xFHNd2221X/umf/qm8/vWvb6J78LkF9JelI8BYEQQRSoNLH2K/bvdhhAjAepz1+BZr2bJlzePjLGZ8jblj7p/b9RHxGLf17efj2Bcjnlvx2MG56ds8xfHEPMVtfQES28B08K8dGCtiIQIhzjzWCIrbPo16NjsCOYI7wmhTxHKTOFtZz9rOHXP/3K6POKZ4btSz0RHac89mjzM4NzH3Ed59m6c4pvriK44tnlvOZsP0ENrAQ4pQGDxbGaHQpxHHFrcRRhGMP/3pT5v9h1I/p97GWd0ddthh3sfG/X0aEY51u75YWYyI8hjxuBrsYfDP6Pqoz6n6giJesMb9wHQQ2kAjIqAGQYRAhE9dPxtqKNSYqvtdH6GecYxji9vBFxWD4vNjTuK2nqGMuRr8WnEbX2dUTNXP68sIMVfxXImz+LFGfT4xH/H8inkLgz8hCfH4wbnswwiDxzQY3MB0ENpAI/7nH1EQ0VRDc/AM41xxXx9GVeOnRvd8MRRxOHgWNuIpjPqag/f1cVT1hUU8X8bNW3ysztt8L2bm/hldHqEec4j7Yo7i+IHpILSBRkRAjcy4/FjcxhnKiIK+jzjOON4azaGG0qCIpkc+8pHN569bt65Zkx1Gfc1pGLHEJm7j7HTMX2yPEnMZa9dj/uplE+Mx9ev0ecSx33333c1tBHfM2XwvRoD+iX/tw/83AaZORMB+++1XnvjEJzbRFCEZ4bl8+fL2M/orwjl+SS3WV998883luuuua8IoQqmKOIrlDb/0S79UVq9e3YRivDCJOYr7p1GN67jaymc/+9lmTuqLj0Exd3vvvXf51V/91Y0/JYnn26gXM31TX7zF+v3bb7+9XHPNNbNe0AH9JrSBRoRPBFHcRjxFPEZ4xjWS+66GcoRfxGLsR0TGqGJu6pnI+HjMUURjfP60iudKVZ8/ceZ6rrg/Yry+OBmc176L443jr2e3YztCe/BFHNBfQhuYJUJgGs40zhXHHWoMjZuD+vFpnatBg3MRHmo+pnXOFjo/QL8IbQAASOCXIQEAIIHQBgCABEIbAAASCG0AAEggtAEAIIGrjgALMnhZtnqpsvm4hNnmq/O9uZeFm+/vamv/HQ0+f/pk8Lg29+8K6B+hDTwkAbH11YCrcx8WM/+Djxs092uGrfH32sfn0Ny/m/pul3G/N6QBQvxXwv85AXokQq8G7dztUGOwqh9n88W81jk3r4DQBuipwcgOc/fZ8uocx20w3zDdhDYAbCFezACDhDYAACRweT8AAEggtIFZ6tpSAGDzCG0AAEhgjTYAACRwRhsAABI4ow098s53vrMceOCB7d5kO+GEE8p1113X7i3O4YcfXn7v936v3Zvtk5/8ZPnbv/3bdq9bXvnKV5Z3vOMd7d5sF154YTn11FPbvV84/fTTy1577dXu9dvf/M3flLVr17Z789t3333LYYcdVp785CeXXXbZpb23G+67775y6623luuvv76cccYZ7b1Al0VoG4bRg3HLLbfMdMUf//EfjzyGhYzf//3fb7/KsL/6q78a+ZgujA0vHtqjGPa+971v5GO+9rWvtZ/Rf0ceeeTIOahj5cqVM1deeWX72d33X//1XzNHHXXUyGM1DKMbw9IR6Ik99tijOYPXFatXr263Fu9hD3tYuzXsgQceaLe65xGPeES7NexnP/tZuzXbwx/+8Har/+abg3DAAQeUr371q5v1vJo0K1asKB/96EfLSSed1N4DdI3Qhp542cte1m51wwtf+MJ2a/HGxWWXQ3vccQnt+f9u995773LppZeW5cuXt/f0SywJO/HEE9s9oEuENvRE10J72bJlZdWqVe3e4vQ1tLfbbrt2a5jQnv/v9tOf/nS71V8nn3xyedrTntbuAV0htKEnXvziF7db3bH//vu3W4vT19AetyRGaI/+uz3mmGPKypUr271+e9e73tVuAV0htKEHYhnGTjvt1O51x6YuHxkXl+PW8U66cWu077///nZrNqF9TLvVf4ceemjZeeed2z2gC1zeD3rgr//6r8sf/dEftXuzff3rXy8XX3xxu7f17brrruVNb3pTuzfb3XffvUnrak855ZR5L4N33HHHldNOO63d65Zxf49xvO9973vbvV/4j//4j2aOp8GLXvSicsUVV7R7pVlK8e1vf7vdmw6HHHJIueiii9o9oAuGLkViGEa3xje+8Y32gmDD3vjGN458zNYaO++8c/udjPbsZz975OPGjTVr1rSPHnb00UePfEwXxsknn9wexbC3ve1tIx+ztcbBBx/cfifD/vEf/3HkY7LHgQce2H4Ho5166qkzK1asGPnYSRzxb+X4449vv/vR4uOjHmsYxmQOS0eg4+ISYL/+67/e7g275JJL2q2lcc8995QvfelL7d6wTVmnvSmXweuCSV4SM4nr4sddzvLKK69s3hTpjjvuaO+ZfPFvZcOLyOaSfvPZbbfd2i2gC4Q2dNxLX/rSdmvYN7/5zfLDH/6w3Vs6gz/un2tTQntc9P385z9vt7pnU646srVM4pyP+72Ea665pt3qnnhXyPlsu63/bUOX+BcLHffyl7+83Rq21Gezq3GhvSlXS5nEs6tbwiSf0Z7EnyKMm694K/OumpmJnziP1uXnN0wjoQ0dN+6M9uc+97l2a2lddtll7dawuIpCvOHIYvR16cgkH9ckvriZxhdcQhu6RWhDhz3nOc8pj3vc49q92eKKHl/4whfavaU37ntZ7GX++voW7JtyHe2tRWhvPZP8PAAWR2hDh41bNjLuLPJSuPzyy9utYYtdpz3uzG+XA2vccc13He2tRWhvPeOeB13+HQSYRkIbOqwLy0aqceu0V69e3W4tTF8Da5KPS2hvPX39iQ1MI6ENHRVXXBi35OKzn/1suzUZrr766nZrWCx/ecYzntHuPbS+BlZXrzqyVHM+jT/ZsHQEukVoQ0cdcMAB7dawG2+8sdx2223t3uRYu3ZtuzVsMeu0p/FMptAe1tfnQV+PC6aR0IaOetnLXtZuDZuUy/rNNW6d9pYK7S6f8Rt3Rtsa7WFCG5h0Qhs66rd+67farWGTtj67Ghfai1mnPY2BNclntJfqe5vk+docfT0umEZCGzroqU99atl9993bvdnWr19fPv/5z7d7k+Xaa68td911V7s326/8yq80x7UQ40Kky1dlmOS1uZO4HrqvV+cY9/x2Rhu6RWhDB427rN+4q3tMgnHX017oZf76+sti4wJrqZeOjFs/vlRR29frTff1hSRMI6ENHTRuffakLhupxr0QWOg67b6e8ZvEs8bVJM55X58HfT0umEbbbBgzD24CXbFu3bqy4447tnuznXnmmeUHP/hBuzd5nvSkJ5U3vOEN7d5scaWU3Xbbrd2b33XXXVee/exnt3uz7bXXXs1VV7po3HHtscce5ZZbbmn3tr5TTjmlvOMd72j3Znv7299eTj311HZv67ngggvKYYcd1u7Ndsghh5SLLrqo3euWc889t7z+9a9v92Z7zWteU84///x2D+iCCG3DMDoyXvSiF8302e677z7yuAfHt771rfazh+25554jH9OFccMNN7RHMWzDC5CRj9laY82aNe13Muy4444b+Zjs8c///M/tdzDswAMPHPmYLozzzjuvPYphhx9++MjHGIYxmcPSEeiYceuz+2Ah67QtHdn6/DLk1jPJzwNgcYQ2dMy4t13vgxe84AXt1vymcW3uJP8y5FL94mFffxly223n/19zl48LppHQhg55/OMfX571rGe1e/20kDPafT3jN+64ljqwxr0IWKqzx9P4kw1XHYFuEdrQIX0/mx2e8pSnlCc+8Ynt3mjjAquvl3Vb6uOaxBcBXnABk05ow4TZZpu4GNBofV+fXT3UWe1JPLu6JYwLrHvvvbfdWhqTePa4r2e0xy2J6fJxwTQS2jBhZmbiF5VHG/e2633yUNfTnsYz2ktNaG89fT0umEZCGzpin332KY9+9KPbvWF77rlncza8K+Ntb3tb+50P25zQXrFiRbvVLcuWLRv797vUJjH+xv0E4DGPeUy71T3jlk5ZOgLdIrShI8a9G2S8kcl3vvOddq8bxr0V+9Oe9rTmFz/n85Of/KTdGjYu4CfZ8ccf324Nu+OOO9qtpTOJoX3XXXe1W8OOPfbYdqtbYnnY05/+9HZv2A9/+MN2C+gC7wwJHXHVVVfNe+m7008/vbz1rW9t97rjzjvvLLvssku7N9vv/M7vlL/7u79r92a7+uqry/Of//x2b9g111xTLrvssk6s146z+8973vPKAQcc0N4z7Ctf+UrZd999272lcfHFF5eDDjqo3ZstljRdcskl7d7WM+4dFMMNN9xQPvOZzyz5pREXau+99y6vetWr2r3R4vkCdMusd7AxDGPyxvLlyx98W7h5vOIVrxj5uEkfF1xwQXsEw0477bSRj4nx/ve/v/2s6XD22WePnIetOdauXdt+N8M2vEgY+ZjsccIJJ7TfwXTY8GJ75DwYhjG5w9IR6IAXv/jF7dZoV1xxRbvVLeO+79/8zd9st4Z94hOfaLemw8c//vF2a+lM4tKRaXsefOhDH2q3gK4Q2tAB49ZnX3755WXdunXtXrfE9z6fX/u1X5t3WUkspfjmN7/Z7vXbzTffPBEvpCYxtGPt+j/8wz+0e/126623lk9+8pPtHtAVQhs6YL61sWEp1sZuKTfddFP53//933Zv2OrVq9utYePW5vZJrFWfBJMY2iF++XXcL0X2xatf/ep2C+gSoQ0TbuXKlWXXXXdt94atXbu23eqmz3/+8+3WsHFvXHP99deXE088sd3rpyOPPLJ84xvfaPeW1rjQXspfOo2rcBx11FHtXj/F8zx+igN0j9CGCTdu2UhERteXUIxbPjLujHZ4z3veU97ylre0e/1x9913N2+3P0lLBcZds3qpr+px4YUXNpfEu/baa9t7+uM1r3lN8zwHuklow4QbF9pdP5sdxl1P+1nPetZDvvHImWeeWfbaa69ywQUXtPd0W1yqMaLx0ksvbe+ZDJO6dKT69re/XVatWlUOPvjgcuWVV7b3dtdHPvKRsvvuu5fzzz+/vQfoItfRhgkX10+Odw0cJd6k5rbbbmv3umvcEpGvf/3rzRnehXrGM57RvDtkl643HEsv4qcT3/3ud9t7Jk9E7E477dTuzfbVr361rF+/vt2bHPvtt1/Zfvvt273J14XnAbA4QhsAABJYOgIAAAmENgAAJBDaAACQQGgDAEACoQ0AAAmENgAAJBDaAACQQGgDAEACoQ0AAAmENgAAJBDaAACQQGgDAEACoQ0AAAmENgAAJBDaAACQQGgDAEACoQ0AAAmENgAAJBDaAACQQGgDAEACoQ0AAAmENgAAJBDaAACQQGgDAEACoQ0AAAmENgAAJBDaAACQQGgDAEACoQ0AAAmENgAAJBDaAACQQGgDAEACoQ0AAAmENgAAJBDaAACQQGgDAEACoQ0AAAmENgAAJBDaAACQQGgDAEACoQ0AAAmENgAAJBDaAACQQGgDAEACoQ0AAAmENgAAJBDaAACQQGgDAEACoQ0AAAmENgAAJBDaAACQQGgDAEACoQ0AAAmENgAAJBDaAACQQGgDAEACoQ0AAAmENgAAJBDaAACQQGgDAEACoQ0AAAmENgAAJBDaAACQQGgDAEACoQ0AAAmENgAAJBDaAACQQGgDAEACoQ0AAAmENgAAJBDaAACQQGgDAEACoQ0AAAmENgAAJBDaAACQQGgDAEACoQ0AAAmENgAAJBDaAACQQGgDAEACoQ0AAAmENgAAJBDaAACQQGgDAEACoQ0AAAmENgAAJBDaAACQQGgDAEACoQ0AAAmENgAAJBDaAACQQGgDAEACoQ0AAAmENgAAJBDaAACQQGgDAEACoQ0AAAmENgAAJBDaAACQQGgDAEACoQ0AAAmENgAAJBDaAACQQGgDAEACoQ0AAAmENgAAJBDaAACQQGgDAEACoQ0AAAmENgAAJBDaAACQQGgDAEACoQ0AAAmENgAAJBDaAACQQGgDAEACoQ0AAAmENgAAJBDaAACQQGgDAEACoQ0AAAmENgAAJBDaAACQQGgDAEACoQ0AAAmENgAAJBDaAACQQGgDAEACoQ0AAAmENgAAJBDaAACQQGgDAEACoQ0AAAmENgAAJBDaAACQQGgDAEACoQ0AAAmENgAAJBDaAACQQGgDAEACoQ0AAAmENgAAJBDaAACQQGgDAEACoQ0AAAmENgAAJBDaAACQQGgDAEACoQ0AAAmENgAAJBDaAACQQGgDAEACoQ0AAAmENgAAJBDaAACQQGgDAEACoQ0AAAmENgAAJBDaAACQQGgDAEACoQ0AAAmENgAAJBDaAACQQGgDAEACoQ0AAAmENgAAJBDaAACQQGgDAEACoQ0AAAmENgAAJBDaAACQQGgDAEACoQ0AAAmENgAAJBDaAACQQGgDAEACoQ0AAAmENgAAJBDaAACQQGgDAEACoQ0AAAmENgAAJBDaAACQQGgDAEACoQ0AAAmENgAAJBDaAACQQGgDAEACoQ0AAAmENgAAJBDaAACQQGgDAEACoQ0AAAmENgAAJBDaAACQQGgDAEACoQ0AAAmENgAAJBDaAACQQGgDAEACoQ0AAAmENgAAJBDaAACQQGgDAEACoQ0AAAmENgAAJBDaAACQQGgDAEACoQ0AAAmENgAAJBDaAACQQGgDAEACoQ0AAAmENgAAJBDaAACQQGgDAEACoQ0AAAmENgAAJBDaAACQQGgDAEACoQ0AAAmENgAAJBDaAACQQGgDAEACoQ0AAAmENgAAJBDaAACQQGgDAEACoQ0AAAmENgAAJBDaAACQQGgDAEACoQ0AAAmENgAAJBDaAACQQGgDAEACoQ0AAAmENgAAJBDaAACQQGgDAEACoQ0AAAmENgAAJBDaAACQQGgDAEACoQ0AAAmENgAAJBDaAACQQGgDAEACoQ0AAAmENgAAJBDaAACQQGgDAEACoQ0AAAmENgAAJBDaAACQQGgDAEACoQ0AAAmENgAAJBDaAACQQGgDAEACoQ0AAAmENgAAJBDaAACQQGgDAEACoQ0AAAmENgAAJBDaAACQQGgDAEACoQ0AAAmENgAAJBDaAACQQGgDAEACoQ0AAAmENgAAJBDaAACQQGgDAEACoQ0AAAmENgAAJBDaAACQQGgDAEACoQ0AAAmENgAAJBDaAACQQGgDAEACoQ0AAAmENgAAJBDaAACQQGgDAEACoQ0AAAmENgAAJBDaAACQQGgDAEACoQ0AAAm2ed4LXjjzwAMPlJmZmfYuAABg85Ty/zJIjcd+uEO2AAAAAElFTkSuQmCC;" parent="1" vertex="1">
          <mxGeometry x="236.21999999999997" y="2175" width="164.78" height="165" as="geometry" />
        </mxCell>
        <mxCell id="8L9NO-aYm_PTyzWSZGwI-3" value="Сотрудники" style="rounded=1;whiteSpace=wrap;html=1;" parent="1" vertex="1">
          <mxGeometry x="268.11" y="2390" width="101" height="30" as="geometry" />
        </mxCell>
        <mxCell id="8L9NO-aYm_PTyzWSZGwI-4" value="Автомобили" style="rounded=1;whiteSpace=wrap;html=1;" parent="1" vertex="1">
          <mxGeometry x="268.11" y="2350" width="101" height="30" as="geometry" />
        </mxCell>
        <mxCell id="wOyAtH8j2Ah_wCIYU3rB-1" value="Добавить продажу&amp;nbsp;" style="rounded=1;whiteSpace=wrap;html=1;" parent="1" vertex="1">
          <mxGeometry x="268.11" y="1320" width="101" height="30" as="geometry" />
        </mxCell>
        <mxCell id="8rmR7BkOSwpAJ7F8WQTr-1" value="Выход" style="rounded=1;whiteSpace=wrap;html=1;" vertex="1" parent="1">
          <mxGeometry x="268.11" y="2430" width="101" height="30" as="geometry" />
        </mxCell>
      </root>
    </mxGraphModel>
  </diagram>
</mxfile>
